SplineFontDB: 3.0
FontName: Galevala
FullName: Galevala
FamilyName: Galevala
Weight: Regular
Copyright: Copyright (c) 2019, Harri Haemaelaenen
Version: 001.000
ItalicAngle: 0
UnderlinePosition: -100
UnderlineWidth: 50
Ascent: 800
Descent: 200
InvalidEm: 0
sfntRevision: 0x00010000
LayerCount: 2
Layer: 0 0 "Back" 1
Layer: 1 0 "Fore" 0
XUID: [1021 605 -819141347 6804313]
StyleMap: 0x0000
FSType: 0
OS2Version: 4
OS2_WeightWidthSlopeOnly: 0
OS2_UseTypoMetrics: 1
CreationTime: 1555851818
ModificationTime: 1555855392
PfmFamily: 17
TTFWeight: 400
TTFWidth: 5
LineGap: 90
VLineGap: 0
Panose: 2 0 5 9 0 0 0 0 0 0
OS2TypoAscent: 800
OS2TypoAOffset: 0
OS2TypoDescent: -200
OS2TypoDOffset: 0
OS2TypoLinegap: 90
OS2WinAscent: 800
OS2WinAOffset: 0
OS2WinDescent: 200
OS2WinDOffset: 0
HheadAscent: 800
HheadAOffset: 0
HheadDescent: -200
HheadDOffset: 0
OS2SubXSize: 650
OS2SubYSize: 700
OS2SubXOff: 0
OS2SubYOff: 140
OS2SupXSize: 650
OS2SupYSize: 700
OS2SupXOff: 0
OS2SupYOff: 480
OS2StrikeYSize: 49
OS2StrikeYPos: 258
OS2CapHeight: 799
OS2Vendor: 'PfEd'
OS2CodePages: 00000001.00000000
OS2UnicodeRanges: 00000001.00000000.00000000.00000000
MarkAttachClasses: 1
DEI: 91125
LangName: 1033 "Copyright (c) 2019, Harri H+AOQA-m+AOQA-l+AOQA-inen"
Encoding: UnicodeBmp
UnicodeInterp: none
NameList: AGL For New Fonts
DisplaySize: -48
AntiAlias: 1
FitToEm: 0
WinInfo: 64 16 4
BeginPrivate: 6
BlueValues 15 [-20 0 800 800]
BlueShift 1 2
StdHW 4 [46]
StdVW 5 [183]
StemSnapH 16 [42 46 61 65 99]
StemSnapV 41 [133 144 150 154 158 167 172 179 183 187]
EndPrivate
BeginChars: 65537 26

StartChar: .notdef
Encoding: 65536 -1 0
Width: 1000
Flags: MW
HStem: 0 50<100 900 100 950> 483 50<100 900 100 100>
VStem: 50 50<50 50 50 483> 900 50<50 483 483 483>
LayerCount: 2
Fore
SplineSet
50 0 m 1
 50 533 l 1
 950 533 l 1
 950 0 l 1
 50 0 l 1
100 50 m 1
 900 50 l 1
 900 483 l 1
 100 483 l 1
 100 50 l 1
EndSplineSet
EndChar

StartChar: A
Encoding: 65 65 1
Width: 1000
Flags: MW
HStem: -200.077 42.2109 328.551 99.2354 688.238 49.4551 699.138 45.876
VStem: 450.464 40.4561
LayerCount: 2
Fore
SplineSet
450.463867188 -39.43359375 m 1xe8
 472.794921875 -43.6298828125 490.919921875 -65.4755859375 490.919921875 -88.1982421875 c 0
 490.919921875 -98.1142578125 485.768554688 -112.34375 479.420898438 -119.9609375 c 0
 453.06640625 -155.750976562 425.248046875 -192.516601562 376.118164062 -197.234375 c 0
 366.530273438 -198.803710938 350.86328125 -200.077148438 341.147460938 -200.077148438 c 0
 328.942382812 -200.077148438 309.334960938 -198.075195312 297.380859375 -195.607421875 c 0
 183.50390625 -163.071289062 127.541992188 -78.4775390625 98.91015625 32.958984375 c 0
 71.7421875 138.5390625 82.6416015625 239.23828125 115.177734375 340.263671875 c 0
 131.446289062 393.459960938 142.997070312 450.073242188 169.188476562 498.551757812 c 0
 200.911132812 557.60546875 234.260742188 617.471679688 283.064453125 666.6015625 c 0
 287.9453125 671.482421875 288.108398438 681.243164062 293.639648438 699.137695312 c 1
 246.787109375 699.137695312 204.327148438 696.046875 162.518554688 699.137695312 c 0
 125.790039062 701.5625 67.4853515625 712.495117188 32.373046875 723.540039062 c 0
 16.2685546875 729.233398438 10.2490234375 759.655273438 0 778.526367188 c 1
 9.5986328125 789.750976562 l 1
 24.5537109375 786.537109375 48.3857421875 779.759765625 62.794921875 774.622070312 c 0
 124.939453125 748.755859375 190.662109375 746.965820312 255.897460938 745.013671875 c 0xd8
 394.827148438 741.109375 533.810546875 738.668945312 672.848632812 737.693359375 c 0
 734.546875 739.056640625 829.29296875 762.815429688 884.333984375 790.727539062 c 0
 908.41015625 801.952148438 930.046875 808.78515625 953.147460938 776.249023438 c 1
 922.401367188 761.607421875 895.396484375 747.12890625 867.08984375 735.578125 c 0
 818.28515625 715.243164062 811.778320312 707.434570312 813.2421875 654.23828125 c 0
 813.544921875 650.360351562 813.791015625 644.055664062 813.791015625 640.166015625 c 0
 813.791015625 636.276367188 813.544921875 629.971679688 813.2421875 626.09375 c 0
 798.275390625 521.653320312 823.166015625 420.953125 840.247070312 319.27734375 c 0
 847.5546875 279.180664062 854.842773438 213.587890625 856.515625 172.865234375 c 0
 858.142578125 104.05078125 861.395507812 36.375 884.659179688 -29.34765625 c 0
 887.209960938 -40.3525390625 889.279296875 -58.4521484375 889.279296875 -69.748046875 c 0
 889.279296875 -71.080078125 889.25 -73.2412109375 889.213867188 -74.5732421875 c 0
 892.630859375 -120.44921875 901.252929688 -130.209960938 947.291015625 -138.34375 c 0
 957.01953125 -139.08984375 972.689453125 -141.203125 982.267578125 -143.061523438 c 0
 1000 -148.592773438 1017.08105469 -156.401367188 1036.27832031 -163.884765625 c 1
 1003.74121094 -211.875976562 963.559570312 -189.42578125 934.602539062 -178.201171875 c 0
 866.764648438 -152.171875 797.950195312 -151.033203125 728.6484375 -157.21484375 c 0
 696.112304688 -160.305664062 664.388671875 -177.712890625 631.0390625 -185.68359375 c 0
 627.153320312 -186.427734375 620.787109375 -187.030273438 616.830078125 -187.030273438 c 0
 609.041015625 -187.030273438 596.821289062 -184.750976562 589.555664062 -181.942382812 c 0
 583.672851562 -177.580078125 578.8984375 -168.096679688 578.8984375 -160.772460938 c 0
 578.8984375 -160.194335938 578.935546875 -159.255859375 578.981445312 -158.678710938 c 0
 578.981445312 -153.147460938 591.670898438 -148.592773438 599.479492188 -145.501953125 c 0
 635.26953125 -130.698242188 671.546875 -116.70703125 709.939453125 -101.578125 c 1
 700.666992188 2.86328125 691.556640625 109.907226562 681.470703125 215.32421875 c 0
 679.463867188 239.466796875 672.904296875 278.09375 666.829101562 301.545898438 c 0
 662.627929688 312.26171875 650.165039062 323.267578125 639.010742188 326.110351562 c 0
 579.958007812 328.875976562 520.904296875 328.225585938 461.688476562 328.55078125 c 0
 430.616210938 328.55078125 399.544921875 328.55078125 368.634765625 327.412109375 c 0
 336.674804688 326.565429688 285.001953125 322.556640625 253.293945312 318.463867188 c 0
 243.4765625 313.756835938 234.584960938 301.1484375 233.447265625 290.3203125 c 0
 240.442382812 225.248046875 250.528320312 160.17578125 259.150390625 95.103515625 c 0
 265.495117188 47.1123046875 261.590820312 4.490234375 207.255859375 -16.8212890625 c 0
 199.772460938 -19.7490234375 193.752929688 -41.548828125 196.681640625 -52.123046875 c 0
 212.486328125 -110.493164062 274.392578125 -157.866210938 334.864257812 -157.866210938 c 0
 352.994140625 -157.866210938 380.950195312 -151.452148438 397.266601562 -143.549804688 c 0
 450.952148438 -118.985351562 432.081054688 -75.38671875 450.463867188 -39.43359375 c 1xe8
428.338867188 431.0390625 m 1
 428.338867188 427.786132812 l 1
 483 427.786132812 537.498046875 426.809570312 591.99609375 427.786132812 c 0
 625.99609375 428.599609375 659.670898438 446.33203125 653.1640625 494.485351562 c 0
 646.33203125 545.404296875 645.192382812 597.299804688 635.919921875 647.73046875 c 0
 634.283203125 669.044921875 615.625 687.192382812 594.2734375 688.23828125 c 0xe8
 534.732421875 690.352539062 475.028320312 699.462890625 415.32421875 697.8359375 c 0
 374.00390625 696.697265625 325.849609375 693.606445312 318.854492188 634.065429688 c 0
 318.041015625 626.745117188 309.744140625 620.725585938 306.166015625 613.405273438 c 0
 282.251953125 563.298828125 257.361328125 513.84375 235.724609375 462.599609375 c 0
 225.313476562 437.05859375 240.1171875 422.254882812 268.260742188 423.556640625 c 2
 428.338867188 431.0390625 l 1
EndSplineSet
EndChar

StartChar: B
Encoding: 66 66 2
Width: 1000
Flags: MW
HStem: -200.009 21G -60.25 34.248 333.354 41.877 571.223 46.3398
VStem: 192.988 150.949
LayerCount: 2
Fore
SplineSet
674.241210938 394.221679688 m 1
 704.073242188 383.893554688 751.046875 363.751953125 779.094726562 349.26171875 c 0
 797.854492188 337.18359375 822.069335938 311.66015625 833.143554688 292.290039062 c 0
 877.94140625 214.868164062 906.508789062 132.413085938 887.35546875 40.8701171875 c 0
 880.473632812 -2.9404296875 845.93359375 -59.8759765625 810.2578125 -86.2197265625 c 0
 792.079101562 -99.205078125 779.581054688 -119.818359375 761.564453125 -133.939453125 c 0
 716.057617188 -170.41015625 631.793945312 -200.008789062 573.475585938 -200.008789062 c 0
 521.048828125 -200.008789062 443.666015625 -175.572265625 400.747070312 -145.463867188 c 0
 311.475585938 -85.5703125 215.0625 -43.5322265625 103.5546875 -52.9462890625 c 0
 93.486328125 -55.6982421875 76.9072265625 -58.970703125 66.5478515625 -60.25 c 0
 57.6201171875 -60.25 49.3427734375 -50.673828125 40.740234375 -45.3173828125 c 1
 48.2060546875 -38.662109375 55.185546875 -26.9765625 63.4638671875 -26.001953125 c 0
 94.6279296875 -22.431640625 126.278320312 -22.59375 157.766601562 -20.970703125 c 0
 179.516601562 -19.833984375 192.98828125 -10.7451171875 192.98828125 13.6015625 c 0
 192.98828125 116.344726562 196.721679688 219.25 192.98828125 321.993164062 c 0
 189.138671875 378.71484375 178.013671875 470.190429688 168.154296875 526.180664062 c 0
 163.447265625 556.533203125 149.975585938 578.283203125 111.5078125 572.764648438 c 0
 102.918945312 571.913085938 88.9423828125 571.22265625 80.310546875 571.22265625 c 0
 66.708984375 571.22265625 44.763671875 572.931640625 31.326171875 575.036132812 c 0
 21.2607421875 576.946289062 8.0263671875 585.08984375 1.78515625 593.215820312 c 0
 0.85546875 595.662109375 0.099609375 599.771484375 0.099609375 602.388671875 c 0
 0.099609375 607.01953125 2.3095703125 613.81640625 5.03125 617.5625 c 0
 14.12109375 621.294921875 26.1318359375 617.5625 36.5205078125 617.5625 c 0
 83.7529296875 623.567382812 135.04296875 620.970703125 177.08203125 639.149414062 c 0
 236.487304688 664.95703125 289.401367188 705.53515625 344.262695312 741.081054688 c 0
 457.879882812 815.094726562 574.2578125 817.529296875 691.93359375 754.390625 c 0
 723.321289062 739.717773438 768.623046875 707.868164062 793.052734375 683.297851562 c 0
 861.223632812 605.55078125 863.171875 520.987304688 767.89453125 456.0625 c 0
 739.65234375 436.747070312 710.598632812 418.73046875 674.241210938 394.221679688 c 1
354.650390625 -14.478515625 m 0
 352.377929688 -45.8046875 352.377929688 -76.318359375 392.956054688 -84.7587890625 c 0
 400.259765625 -86.3818359375 406.102539062 -94.3349609375 413.244140625 -98.23046875 c 0
 445.70703125 -116.084960938 476.383789062 -138.80859375 510.631835938 -150.0078125 c 0
 566.953125 -168.186523438 625.060546875 -170.784179688 672.942382812 -126.1484375 c 0
 758.643554688 -46.12890625 746.469726562 64.4052734375 754.098632812 166.01171875 c 0
 757.506835938 208.212890625 728.940429688 254.795898438 708.651367188 295.861328125 c 0
 692.419921875 330.271484375 664.177734375 357.052734375 619.217773438 349.5859375 c 0
 583.671875 343.905273438 548.288085938 336.6015625 512.579101562 333.354492188 c 0
 502.19140625 332.380859375 490.829101562 341.30859375 480.1171875 345.528320312 c 1
 486.122070312 355.75390625 489.53125 369.55078125 498.295898438 375.231445312 c 0
 544.5546875 405.583984375 592.436523438 433.500976562 639.181640625 462.879882812 c 0
 644.543945312 466.953125 651.815429688 474.87890625 655.413085938 480.571289062 c 0
 675.28125 504.436523438 691.40625 549.006835938 691.40625 580.060546875 c 0
 691.40625 595.459960938 687.061523438 619.678710938 681.70703125 634.118164062 c 0
 661.743164062 691.900390625 578.639648438 782.470703125 500.568359375 757.9609375 c 0
 456.513671875 744.0859375 387.142578125 716.235351562 345.72265625 695.795898438 c 0
 333.549804688 689.791015625 326.083007812 662.197265625 326.408203125 644.505859375 c 0
 328.193359375 563.350585938 333.874023438 482.194335938 337.283203125 402.174804688 c 0
 340.041992188 333.192382812 341.015625 264.047851562 343.9375 195.065429688 c 0
 346.859375 126.083007812 350.916992188 55.3154296875 354.650390625 -14.478515625 c 0
EndSplineSet
EndChar

StartChar: C
Encoding: 67 67 3
Width: 1000
Flags: W
LayerCount: 2
Fore
SplineSet
889.849609375 778.1328125 m 1
 865.532226562 756.91015625 823.934570312 725.254882812 796.997070312 707.473632812 c 0
 735.428710938 670.774414062 627.288085938 640.989257812 555.612304688 640.989257812 c 0
 537.975585938 640.989257812 509.479492188 642.920898438 492.00390625 645.299804688 c 0
 446.311523438 651.828125 403.39453125 677.9375 358.518554688 692.297851562 c 0
 354.418945312 693.4765625 347.630859375 694.432617188 343.366210938 694.432617188 c 0
 337.918945312 694.432617188 329.354492188 692.891601562 324.249023438 690.9921875 c 0
 220.953125 651.174804688 164.98046875 560.444335938 109.82421875 475.260742188 c 0
 86.8115234375 440.448242188 68.1357421875 378.325195312 68.1357421875 336.59375 c 0
 68.1357421875 321.405273438 70.8017578125 297.041992188 74.0859375 282.212890625 c 0
 88.935546875 215.306640625 101.828125 145.299804688 149.803710938 95.6923828125 c 0
 197.780273438 46.083984375 253.58984375 13.1201171875 306.625 -26.8603515625 c 0
 316.743164062 -34.5302734375 330.940429688 -37.7939453125 339.262695312 -46.7685546875 c 0
 347.861328125 -58.734375 366.799804688 -68.4453125 381.534179688 -68.4453125 c 0
 388.227539062 -68.4453125 398.532226562 -66.044921875 404.536132812 -63.087890625 c 0
 427.872070312 -55.091796875 457.735351562 -68.9619140625 484.170898438 -67.330078125 c 0
 578.818359375 -61.7822265625 674.119140625 -58.35546875 739.392578125 28.623046875 c 0
 765.528320312 62.2041015625 811.000976562 114.037109375 840.89453125 144.321289062 c 0
 845.953125 149.54296875 864.229492188 147.258789062 873.53125 142.200195312 c 0
 878.100585938 139.588867188 879.080078125 119.353515625 873.53125 113.96875 c 0
 803.688476562 38.087890625 739.555664062 -45.13671875 660.248046875 -109.595703125 c 0
 547.9765625 -200 419.712890625 -226.92578125 277.415039062 -170.790039062 c 0
 217.401367188 -149.641601562 135.594726562 -92.837890625 94.810546875 -43.9951171875 c 0
 69.1748046875 -9.3984375 38.1044921875 52.083984375 25.45703125 93.244140625 c 0
 -20.2353515625 226.892578125 -0.326171875 358.419921875 52.3828125 484.888671875 c 0
 74.2490234375 537.59765625 120.267578125 573.171875 156.004882812 615.4375 c 0
 225.359375 698.662109375 319.190429688 745.985351562 408.942382812 796.736328125 c 0
 411.862304688 797.482421875 416.677734375 798.087890625 419.692382812 798.087890625 c 0
 426.458007812 798.087890625 436.62890625 795.215820312 442.395507812 791.677734375 c 0
 479.927734375 771.768554688 514.5234375 744.353515625 553.8515625 729.830078125 c 0
 655.026367188 692.787109375 746.41015625 724.934570312 833.55078125 778.786132812 c 0
 846.56640625 784.0234375 868.499023438 788.921875 882.506835938 789.719726562 c 1
 889.849609375 778.1328125 l 1
EndSplineSet
EndChar

StartChar: D
Encoding: 68 68 4
Width: 1000
Flags: MW
HStem: -39.7129 34.5205 571.136 47.5645
VStem: 184.069 156.865 196.612 144.322 737.091 159.558
LayerCount: 2
Fore
SplineSet
196.612304688 177.09765625 m 1xd8
 196.612304688 571.297851562 l 2xd8
 196.612304688 604.854492188 174.784179688 599.315429688 155.07421875 595.40625 c 0
 118.422851562 588.239257812 82.09765625 579.1171875 45.7724609375 571.135742188 c 0
 29.4833984375 567.388671875 14.171875 567.71484375 13.1943359375 590.03125 c 0
 12.216796875 612.34765625 22.4794921875 620.002929688 43.4921875 618.700195312 c 0
 118.749023438 613.813476562 182.603515625 644.92578125 243.19921875 683.857421875 c 0
 271.379882812 702.264648438 297.768554688 724.41796875 325.786132812 743.96484375 c 0
 417.983398438 808.14453125 516.859375 815.149414062 619.970703125 775.56640625 c 0
 651.462890625 765.518554688 700.064453125 743.625976562 728.45703125 726.698242188 c 0
 779.280273438 691.838867188 826.193359375 651.278320312 843.78515625 586.7734375 c 0
 858.283203125 533.833007812 882.716796875 482.84765625 891.67578125 429.255859375 c 0
 894.420898438 411.946289062 896.6484375 383.673828125 896.6484375 366.147460938 c 0
 896.6484375 344.009765625 893.107421875 308.427734375 888.744140625 286.724609375 c 0
 873.920898438 212.4453125 858.934570312 135.559570312 826.518554688 68.28515625 c 0
 776.327148438 -39.193359375 643.729492188 -155.225585938 530.541992188 -190.71484375 c 0
 468.154296875 -211.40234375 409.67578125 -195.11328125 353.314453125 -172.470703125 c 0
 325.618164062 -160.387695312 284.897460938 -134.189453125 262.420898438 -113.9921875 c 0
 194.494140625 -55.6767578125 114.025390625 -41.341796875 28.9951171875 -39.712890625 c 0
 11.728515625 -39.712890625 -2.1171875 -40.853515625 0.326171875 -17.234375 c 0
 2.76953125 6.3857421875 16.2890625 1.82421875 32.578125 0.8466796875 c 0
 63.0283203125 -2.486328125 112.602539062 -5.1923828125 143.235351562 -5.1923828125 c 0
 144.614257812 -5.1923828125 146.853515625 -5.1865234375 148.232421875 -5.1796875 c 0
 156.376953125 -5.1796875 169.083007812 7.3623046875 171.689453125 16.484375 c 0
 177.352539062 35.0986328125 182.8984375 65.9677734375 184.069335938 85.388671875 c 0
 186.0234375 115.849609375 184.069335938 146.473632812 184.069335938 177.09765625 c 1xe8
 196.612304688 177.09765625 l 1xd8
489.819335938 -153.575195312 m 1
 574.360351562 -143.638671875 644.567382812 -109.594726562 679.426757812 -40.6904296875 c 0
 709.724609375 19.0908203125 720.801757812 89.6240234375 731.2265625 157.875976562 c 0
 739.860351562 213.096679688 733.669921875 270.59765625 737.090820312 326.795898438 c 0
 738.231445312 345.203125 751.099609375 362.6328125 755.171875 381.365234375 c 0
 759.244140625 400.09765625 770.158203125 431.373046875 760.873046875 442.124023438 c 0
 735.625 471.282226562 742.955078125 504.0234375 737.25390625 535.135742188 c 0
 732.204101562 562.828125 733.669921875 592.637695312 723.5703125 618.048828125 c 0
 711.842773438 647.532226562 696.530273438 682.391601562 671.93359375 698.354492188 c 0
 637.276367188 718.395507812 577.80078125 743.20703125 539.17578125 753.73828125 c 0
 484.76953125 771.819335938 430.200195312 753.73828125 388.663085938 724.41796875 c 0
 365.206054688 708.127929688 358.0390625 660.7265625 353.803710938 626.681640625 c 0
 346.961914062 570.97265625 348.265625 514.286132812 346.798828125 458.087890625 c 0
 344.518554688 372.243164062 341.586914062 286.561523438 340.934570312 200.716796875 c 0
 340.934570312 108.356445312 339.794921875 15.8330078125 344.192382812 -76.201171875 c 0
 347.291992188 -95.658203125 363.858398438 -119.083007812 381.169921875 -128.490234375 c 0
 410.204101562 -138.149414062 458.368164062 -149.387695312 488.678710938 -153.575195312 c 1
 489.819335938 -153.575195312 l 1
EndSplineSet
EndChar

StartChar: E
Encoding: 69 69 5
Width: 1000
Flags: MW
HStem: 241.597 103.666 775.162 20G
VStem: 748.203 52.251
LayerCount: 2
Fore
SplineSet
0 219.533203125 m 1
 2.6796875 317.848632812 51.8115234375 462.19140625 109.668945312 541.7265625 c 0
 140.006835938 583.2578125 167.5859375 626.8984375 196.788085938 669.403320312 c 0
 200.427734375 676.216796875 208.27734375 685.666015625 214.30859375 690.493164062 c 0
 293.31640625 737.541015625 371.025390625 787.833007812 467.229492188 793.997070312 c 0
 474.1328125 794.640625 485.364257812 795.162109375 492.297851562 795.162109375 c 0
 528.282226562 795.162109375 583.481445312 781.848632812 615.509765625 765.444335938 c 0
 653.309570312 745.328125 689.973632812 722.939453125 727.774414062 702.66015625 c 0
 738.708007812 696.094726562 757.750976562 688.826171875 770.279296875 686.4375 c 0
 831.116210938 679.4609375 833.225585938 681.408203125 860.155273438 737.865234375 c 0
 865.833984375 749.383789062 871.51171875 761.064453125 878.000976562 772.095703125 c 0
 889.357421875 792.212890625 904.12109375 808.598632812 928.455078125 795.1328125 c 0
 946.788085938 784.912109375 947.760742188 747.598632812 931.862304688 728.942382812 c 0
 912.232421875 705.905273438 886.599609375 689.033203125 880.758789062 653.991210938 c 0
 874.918945312 618.94921875 853.991210938 588.287109375 847.33984375 554.055664062 c 0
 834.036132812 486.567382812 823.329101562 418.267578125 816.677734375 349.805664062 c 0
 808.443359375 275.07421875 801.174804688 153.408203125 800.454101562 78.228515625 c 0
 800.454101562 12.3623046875 814.40625 -53.666015625 824.302734375 -119.370117188 c 0
 826.78125 -130.838867188 835.4296875 -146.973632812 843.608398438 -155.385742188 c 0
 854.963867188 -167.553710938 862.588867188 -178.098632812 845.392578125 -189.455078125 c 0
 828.196289062 -200.811523438 812.946289062 -208.2734375 799.643554688 -187.5078125 c 0
 793.56640625 -177.596679688 784.91796875 -160.879882812 780.337890625 -150.194335938 c 0
 760.3828125 -105.581054688 740.590820312 -95.5224609375 692.89453125 -110.610351562 c 0
 670.809570312 -116.766601562 636.577148438 -130.720703125 616.482421875 -141.758789062 c 0
 494.322265625 -213.627929688 373.134765625 -222.063476562 248.215820312 -149.545898438 c 0
 99.2861328125 -64.0498046875 19.3056640625 63.7900390625 0 219.533203125 c 1
602.043945312 344.126953125 m 1
 603.1796875 332.93359375 l 1
 651.849609375 343.153320312 700.51953125 353.211914062 749.188476562 363.919921875 c 0
 754.127929688 364.883789062 760.233398438 369.171875 762.81640625 373.491210938 c 0
 771.739257812 400.421875 780.662109375 427.514648438 787.151367188 454.607421875 c 0
 792.018554688 474.724609375 790.071289062 496.462890625 796.07421875 515.931640625 c 0
 806.943359375 551.622070312 794.776367188 577.254882812 771.739257812 604.185546875 c 0
 723.880859375 660.318359375 659.3125 690.979492188 595.5546875 721.155273438 c 0
 526.768554688 754.575195312 456.359375 767.553710938 379.13671875 735.107421875 c 0
 330.466796875 715.15234375 304.509765625 677.352539062 272.712890625 643.283203125 c 0
 256.072265625 625.796875 236.375976562 593.018554688 228.748046875 570.1171875 c 0
 215.866210938 525.96484375 199.440429688 453.28515625 192.083007812 407.884765625 c 0
 189.649414062 393.932617188 197.923828125 366.677734375 206.68359375 363.919921875 c 0
 236.243164062 354.868164062 285.301757812 346.510742188 316.190429688 345.262695312 c 0
 411.420898438 342.504882812 506.813476562 344.126953125 602.043945312 344.126953125 c 1
747.080078125 145.87890625 m 1
 750.973632812 145.87890625 l 1
 749.444335938 161.172851562 748.203125 186.059570312 748.203125 201.4296875 c 0
 748.203125 202.44140625 748.208984375 204.083007812 748.215820312 205.09375 c 0
 749.513671875 234.9453125 735.237304688 242.407226562 707.819335938 241.596679688 c 0
 657.52734375 240.13671875 607.073242188 241.596679688 556.78125 241.596679688 c 0
 455.061523438 243.380859375 353.341796875 251.817382812 252.271484375 231.538085938 c 0
 187.377929688 218.559570312 180.40234375 211.908203125 176.995117188 147.501953125 c 0
 176.995117188 141.661132812 176.995117188 135.658203125 175.697265625 129.98046875 c 0
 169.045898438 70.603515625 176.995117188 12.3623046875 214.795898438 -33.3876953125 c 0
 240.430664062 -66.9130859375 291.306640625 -110.520507812 328.358398438 -130.7265625 c 0
 375.73046875 -153.763671875 431.213867188 -172.2578125 487.669921875 -148.41015625 c 0
 535.366210938 -128.29296875 585.009765625 -111.908203125 630.921875 -88.2216796875 c 0
 661.978515625 -70.416015625 710.020507812 -38 738.157226562 -15.8662109375 c 0
 742.638671875 -11.1689453125 746.276367188 -2.087890625 746.276367188 4.404296875 c 0
 746.276367188 4.5859375 746.272460938 4.8798828125 746.268554688 5.0615234375 c 0
 747.404296875 52.595703125 747.080078125 99.318359375 747.080078125 145.87890625 c 1
EndSplineSet
EndChar

StartChar: F
Encoding: 70 70 6
Width: 1000
Flags: MW
HStem: -199.969 61.1348
LayerCount: 2
Fore
SplineSet
841.97265625 713.721679688 m 1
 674.797851562 691.479492188 521.255859375 644.6640625 357.489257812 674.439453125 c 1
 357.489257812 630.134765625 355.3359375 593.36328125 357.489257812 556.950195312 c 0
 359.8203125 526.45703125 368.96875 496.681640625 372.735351562 466.188476562 c 0
 376.143554688 439.282226562 389.416992188 425.112304688 416.323242188 428.69921875 c 0
 462.600585938 434.977539062 511.2109375 424.752929688 555.157226562 452.197265625 c 0
 562.870117188 456.861328125 591.03125 444.6640625 596.412109375 434.259765625 c 0
 605.74609375 412.3359375 615.1484375 375.291015625 617.399414062 351.569335938 c 0
 621.524414062 315.6953125 597.489257812 299.91015625 561.97265625 315.6953125 c 0
 538.818359375 325.02734375 499.765625 332.6015625 474.801757812 332.6015625 c 0
 457.669921875 332.6015625 430.346679688 328.96484375 413.811523438 324.484375 c 0
 384.036132812 318.02734375 379.372070312 304.57421875 385.112304688 278.744140625 c 0
 397.66796875 221.166015625 411.30078125 163.587890625 420.986328125 105.470703125 c 0
 425.708007812 78.978515625 429.540039062 35.63671875 429.540039062 8.7275390625 c 0
 429.540039062 0.3212890625 429.163085938 -13.3115234375 428.69921875 -21.7041015625 c 0
 426.188476562 -56.501953125 439.641601562 -73.36328125 468.87890625 -81.7939453125 c 0
 561.793945312 -108.340820312 654.169921875 -136.681640625 752.287109375 -138.833984375 c 0
 768.96875 -138.833984375 785.291015625 -153.721679688 810.583007812 -165.918945312 c 1
 787.586914062 -184.71484375 744.818359375 -199.96875 715.118164062 -199.96875 c 0
 697.150390625 -199.96875 669.283203125 -193.956054688 652.915039062 -186.546875 c 0
 583.822265625 -158.411132812 467.200195312 -135.576171875 392.59765625 -135.576171875 c 0
 368.303710938 -135.576171875 329.030273438 -138.080078125 304.932617188 -141.166015625 c 0
 257.578125 -146.546875 211.479492188 -168.96875 166.45703125 -187.802734375 c 0
 144.932617188 -196.771484375 130.583007812 -193.901367188 121.614257812 -175.42578125 c 0
 118.923828125 -169.506835938 131.479492188 -152.825195312 140.807617188 -146.546875 c 0
 168.96875 -127.712890625 200.717773438 -114.081054688 227.802734375 -93.9912109375 c 0
 254.887695312 -73.9013671875 246.81640625 -40.1796875 245.740234375 -12.197265625 c 0
 235.157226562 133.631835938 225.470703125 279.8203125 213.811523438 425.112304688 c 0
 208.250976562 492.017578125 195.874023438 558.385742188 190.493164062 625.112304688 c 0
 185.291015625 682.510742188 149.416992188 707.623046875 99.73046875 721.793945312 c 0
 78.888671875 726.741210938 46.0224609375 737.669921875 26.3681640625 746.188476562 c 0
 14.8876953125 751.928710938 8.6103515625 768.430664062 0 780.08984375 c 1
 12.017578125 784.459960938 32.150390625 788.0078125 44.9375 788.0078125 c 0
 45.654296875 788.0078125 46.8173828125 787.99609375 47.533203125 787.982421875 c 0
 100.08984375 775.42578125 150.8515625 752.107421875 203.946289062 745.470703125 c 0
 329.506835938 727.533203125 456.501953125 713.901367188 584.752929688 724.3046875 c 0
 661.299804688 732.083007812 782.8828125 757.4765625 856.143554688 780.986328125 c 0
 862.0625 782.780273438 866.546875 789.775390625 872.466796875 791.03125 c 0
 890.403320312 794.619140625 917.309570312 804.484375 922.690429688 797.66796875 c 0
 929.290039062 787.981445312 934.645507812 770.608398438 934.645507812 758.887695312 c 0
 934.645507812 754.379882812 933.790039062 747.163085938 932.735351562 742.780273438 c 0
 916.44921875 691.896484375 903.231445312 607.239257812 903.231445312 553.8125 c 0
 903.231445312 526.584960938 906.725585938 482.668945312 911.03125 455.78515625 c 0
 924.484375 375.60546875 961.793945312 305.112304688 995.6953125 233.004882812 c 0
 997.84765625 228.520507812 999.282226562 223.856445312 1001.79394531 217.399414062 c 1
 996.135742188 213.313476562 985.879882812 209.997070312 978.900390625 209.997070312 c 0
 962.686523438 209.997070312 945.862304688 222.634765625 941.345703125 238.206054688 c 0
 916.950195312 290.94140625 895.247070312 345.830078125 869.596679688 397.129882812 c 0
 863.028320312 410.013671875 846.956054688 425.202148438 833.721679688 431.03125 c 0
 764.484375 458.116210938 743.138671875 494.529296875 766.81640625 566.278320312 c 0
 779.12109375 596.341796875 802.666015625 643.3515625 819.372070312 671.2109375 c 2
 841.97265625 713.721679688 l 1
EndSplineSet
EndChar

StartChar: G
Encoding: 71 71 7
Width: 1000
Flags: MW
HStem: 752.425 47.335
VStem: -0.186523 166.054 457.646 43.6865 827.562 57.7168
LayerCount: 2
Fore
SplineSet
770.200195312 670.360351562 m 1
 785.118164062 705.877929688 798.969726562 738.376953125 812.466796875 771.23046875 c 0
 817.19140625 787.264648438 834.590820312 800.27734375 851.305664062 800.27734375 c 0
 854.005859375 800.27734375 858.326171875 799.754882812 860.948242188 799.112304688 c 0
 884.567382812 794.849609375 895.22265625 776.025390625 878.70703125 760.930664062 c 0
 833.599609375 718.131835938 848.162109375 664.5 844.965820312 614.065429688 c 0
 844.896484375 611.639648438 844.83984375 607.701171875 844.83984375 605.274414062 c 0
 844.83984375 560.190429688 862.956054688 491.80859375 885.278320312 452.63671875 c 0
 894.512695312 434.877929688 906.055664062 410.193359375 876.04296875 402.202148438 c 0
 846.03125 394.2109375 835.375976562 415.521484375 827.561523438 440.383789062 c 0
 813.709960938 483.892578125 805.541015625 531.486328125 781.921875 569.3125 c 0
 728.112304688 656.153320312 642.514648438 705.700195312 545.90625 734.647460938 c 0
 516.16796875 743.26953125 466.919921875 751.224609375 435.979492188 752.40625 c 0
 435.133789062 752.416015625 433.760742188 752.424804688 432.915039062 752.424804688 c 0
 379.303710938 752.424804688 303.185546875 723.616210938 263.008789062 688.119140625 c 0
 239.211914062 668.584960938 227.490234375 634.842773438 211.86328125 605.0078125 c 0
 187.676757812 557.775390625 167.071289062 476.385742188 165.8671875 423.334960938 c 0
 164.061523438 411.494140625 155.627929688 395.104492188 147.04296875 386.751953125 c 0
 129.284179688 367.75 126.087890625 354.430664062 149.529296875 336.849609375 c 0
 158.5859375 330.1015625 160.540039062 313.408203125 165.157226562 301.33203125 c 0
 184.514648438 248.943359375 159.829101562 187.142578125 200.674804688 139.37109375 c 0
 202.23828125 137.774414062 203.669921875 134.670898438 203.87109375 132.4453125 c 0
 198.543945312 17.0126953125 301.900390625 -21.1689453125 363.701171875 -88.65234375 c 0
 381.5234375 -104.361328125 414.859375 -121.068359375 438.110351562 -125.9453125 c 0
 470.844726562 -135.70703125 525.135742188 -143.62890625 559.293945312 -143.62890625 c 0
 613.326171875 -143.62890625 696.594726562 -124.409179688 745.161132812 -100.728515625 c 0
 806.428710938 -71.958984375 840.170898438 -11.93359375 854.200195312 50.7548828125 c 0
 872.846679688 134.3984375 863.790039062 218.930664062 787.604492188 272.20703125 c 0
 694.370117188 336.139648438 549.458007812 334.541015625 501.33203125 196.19921875 c 0
 495.827148438 180.926757812 499.555664062 145.942382812 467.412109375 159.438476562 c 0
 458.177734375 163.5234375 453.028320312 194.956054688 457.645507812 210.939453125 c 0
 480.553710938 291.38671875 543.065429688 330.811523438 619.073242188 347.504882812 c 0
 725.625976562 371.124023438 814.419921875 324.41796875 883.32421875 249.298828125 c 0
 911.73828125 218.04296875 923.458984375 160.50390625 923.104492188 116.28515625 c 0
 923.104492188 42.763671875 910.318359375 -29.515625 858.817382812 -92.2041015625 c 0
 832.955078125 -122.34765625 781.559570312 -157.512695312 744.094726562 -170.698242188 c 0
 645.000976562 -209.9453125 538.802734375 -206.215820312 437.578125 -186.326171875 c 0
 361.7109375 -171.647460938 254.543945312 -116.670898438 198.366210938 -63.6123046875 c 0
 117.78515625 7.888671875 32.65625 151.095703125 8.3466796875 256.046875 c 0
 3.6357421875 275.854492188 -0.1865234375 308.453125 -0.1865234375 328.8125 c 0
 -0.1865234375 342.237304688 1.48828125 363.897460938 3.5517578125 377.162109375 c 0
 29.6572265625 562.38671875 132.125976562 682.791992188 273.130859375 758.088867188 c 0
 315.265625 781.091796875 388.422851562 799.759765625 436.427734375 799.759765625 c 0
 462.374023438 799.759765625 503.703125 794.059570312 528.680664062 787.036132812 c 0
 601.829101562 768.266601562 710.030273438 715.995117188 770.200195312 670.360351562 c 1
EndSplineSet
EndChar

StartChar: H
Encoding: 72 72 8
Width: 1000
Flags: MW
HStem: -200 45.1787 755.893 44.1074
VStem: 208.393 167.5
LayerCount: 2
Fore
SplineSet
380.178710938 481.25 m 1
 400.129882812 492.481445312 430.76953125 513.28125 448.571289062 527.678710938 c 0
 521.071289062 595.713867188 691.428710938 586.428710938 763.213867188 516.071289062 c 0
 835 445.713867188 900.178710938 365.713867188 932.857421875 267.5 c 0
 941.236328125 241.838867188 948.037109375 199.102539062 948.037109375 172.107421875 c 0
 948.037109375 137.963867188 937.31640625 84.69921875 924.107421875 53.2138671875 c 0
 921.469726562 48.580078125 916.030273438 42.0205078125 911.963867188 38.5712890625 c 0
 898.392578125 24.4638671875 872.142578125 9.4638671875 873.392578125 -2.857421875 c 0
 878.036132812 -48.9287109375 877.5 -99.2861328125 920 -133.036132812 c 0
 937.857421875 -146.786132812 967.5 -162.142578125 948.571289062 -186.607421875 c 0
 929.642578125 -211.071289062 904.642578125 -188.036132812 884.642578125 -175.892578125 c 0
 829.642578125 -142.857421875 813.213867188 -86.607421875 800.357421875 -29.642578125 c 0
 787.5 27.3212890625 782.5 84.642578125 771.428710938 141.607421875 c 0
 761.607421875 191.786132812 749.107421875 241.607421875 735.713867188 291.071289062 c 0
 730 312.321289062 721.607421875 331.25 763.392578125 334.107421875 c 1
 749.286132812 350.892578125 740.178710938 361.786132812 730.892578125 372.5 c 0
 713.928710938 392.678710938 691.607421875 410 680.713867188 433.036132812 c 0
 635.178710938 527.678710938 531.963867188 546.25 457.142578125 470.892578125 c 0
 453.571289062 467.142578125 450.713867188 461.963867188 446.25 460 c 0
 373.571289062 430 370.357421875 372.678710938 375.892578125 304.107421875 c 0
 383.036132812 217.142578125 377.321289062 129.107421875 380.357421875 41.607421875 c 0
 381.374023438 3.5185546875 388.814453125 -57.6015625 396.963867188 -94.8212890625 c 0
 400.357421875 -109.286132812 422.857421875 -122.857421875 439.642578125 -129.642578125 c 0
 466.786132812 -140.892578125 497.321289062 -143.75 524.642578125 -154.821289062 c 0
 535.892578125 -159.286132812 542.5 -176.071289062 550.892578125 -187.321289062 c 1
 540.9375 -192.762695312 523.737304688 -198.442382812 512.5 -200 c 0
 420.536132812 -191.963867188 328.75 -178.392578125 236.607421875 -174.463867188 c 0
 196.963867188 -172.857421875 156.786132812 -192.321289062 116.25 -197.5 c 0
 114.059570312 -197.564453125 110.50390625 -197.6171875 108.3125 -197.6171875 c 0
 93.04296875 -197.6171875 68.5185546875 -195.084960938 53.5712890625 -191.963867188 c 1
 50.892578125 -174.107421875 l 1
 74.2666015625 -161.887695312 113.306640625 -144.528320312 138.036132812 -135.357421875 c 0
 226.428710938 -108.928710938 237.142578125 -94.2861328125 227.321289062 -2.3212890625 c 0
 221.963867188 46.0712890625 214.642578125 94.642578125 212.857421875 143.213867188 c 0
 209.642578125 239.286132812 209.286132812 335.536132812 208.392578125 431.607421875 c 2
 208.392578125 616.428710938 l 2
 208.534179688 617.900390625 208.6484375 620.295898438 208.6484375 621.774414062 c 0
 208.6484375 648.170898438 187.494140625 672.975585938 161.428710938 677.142578125 c 0
 123.396484375 687.524414062 63.556640625 709.524414062 27.857421875 726.25 c 0
 14.107421875 733.036132812 11.25 761.607421875 0 788.75 c 1
 36.375 772.407226562 96.775390625 749.447265625 134.821289062 737.5 c 0
 195.474609375 722.999023438 295.314453125 711.229492188 357.676757812 711.229492188 c 0
 410.034179688 711.229492188 494.194335938 719.55859375 545.536132812 729.821289062 c 0
 655 751.25 765.178710938 773.75 875 795.357421875 c 0
 884.357421875 798.051757812 899.85546875 800.239257812 909.592773438 800.239257812 c 0
 911.727539062 800.239257812 915.190429688 800.131835938 917.321289062 800 c 0
 925.536132812 798.75 939.107421875 787.321289062 938.571289062 782.142578125 c 0
 937.237304688 772.452148438 929.237304688 760.692382812 920.713867188 755.892578125 c 0
 896.25 748.75 870 746.963867188 844.821289062 742.142578125 c 0
 742.678710938 720.892578125 640.892578125 700.357421875 539.107421875 680.713867188 c 0
 490.536132812 671.25 441.607421875 662.857421875 393.213867188 653.571289062 c 0
 386.071289062 652.142578125 375.357421875 643.928710938 375.357421875 638.036132812 c 0
 370.357421875 588.75 367.5 539.107421875 363.928710938 489.821289062 c 1
 380.178710938 481.25 l 1
EndSplineSet
EndChar

StartChar: I
Encoding: 73 73 9
Width: 1000
Flags: MW
HStem: 738.609 41.5303 750.319 45.2451
VStem: 236.502 158.991
LayerCount: 2
Fore
SplineSet
3.37109375 -200 m 1x60
 -7.4521484375 -164.513671875 9.048828125 -149.787109375 34.5986328125 -141.270507812 c 0
 85.69921875 -123.52734375 136.444335938 -105.784179688 188.076171875 -90.7021484375 c 0
 214.807617188 -84.732421875 236.501953125 -57.658203125 236.501953125 -30.2685546875 c 0
 236.501953125 -29.0234375 236.428710938 -27.0048828125 236.337890625 -25.7626953125 c 0
 236.337890625 67.5654296875 234.563476562 161.071289062 238.822265625 254.400390625 c 0
 244.14453125 376.827148438 252.484375 499.432617188 264.016601562 621.504882812 c 0
 270.58203125 690.879882812 260.46875 703.299804688 189.850585938 707.913085938 c 0
 159.249023438 712.155273438 111.555664062 725.907226562 83.392578125 738.609375 c 0
 78.1611328125 743.711914062 73.9150390625 753.783203125 73.9150390625 761.091796875 c 0
 73.9150390625 763.040039062 74.265625 766.163085938 74.6982421875 768.0625 c 0
 80.5498046875 774.729492188 92.498046875 780.139648438 101.368164062 780.139648438 c 0xa0
 102.780273438 780.139648438 105.060546875 779.975585938 106.458007812 779.772460938 c 0
 151.73828125 760.587890625 228.3984375 745.016601562 277.57421875 745.016601562 c 0
 294.084960938 745.016601562 320.760742188 746.8359375 337.118164062 749.077148438 c 0
 399.396484375 756.70703125 460.255859375 778.353515625 521.114257812 795.564453125 c 0
 541.874023438 801.419921875 562.100585938 805.5 567.956054688 781.192382812 c 0
 569.908203125 773.385742188 551.6328125 755.997070312 539.389648438 750.319335938 c 0
 512.775390625 738.25390625 482.966796875 732.576171875 456.529296875 720.688476562 c 0
 442.689453125 714.123046875 425.124023438 698.864257812 423.349609375 685.202148438 c 0
 416.961914062 641.376953125 417.495117188 596.487304688 414.833007812 552.12890625 c 0
 408.090820312 433.783203125 398.864257812 315.258789062 394.250976562 196.735351562 c 0
 391.412109375 122.923828125 394.250976562 48.7578125 395.493164062 -25.408203125 c 0
 397.08984375 -82.541015625 420.688476562 -102.235351562 493.790039062 -115.720703125 c 0
 515.874023438 -118.700195312 550.76953125 -127.364257812 571.681640625 -135.060546875 c 0
 586.053710938 -141.092773438 607.16796875 -161.852539062 604.506835938 -170.546875 c 0
 598.296875 -196.983398438 573.633789062 -186.692382812 556.778320312 -180.127929688 c 0
 492.96484375 -157.553710938 386.23828125 -139.233398438 318.549804688 -139.233398438 c 0
 307.358398438 -139.233398438 289.20703125 -139.748046875 278.034179688 -140.3828125 c 0
 190.3828125 -142.689453125 110.184570312 -170.19140625 28.56640625 -195.032226562 c 0
 21.46875 -196.62890625 14.0166015625 -197.693359375 3.37109375 -200 c 1x60
EndSplineSet
EndChar

StartChar: J
Encoding: 74 74 10
Width: 1000
Flags: MW
HStem: 685.734 46.4209 746.438 46.5986
VStem: 0 212.767
LayerCount: 2
Fore
SplineSet
443.313476562 685.734375 m 0
 316.193359375 678.592773438 196.393554688 716.0859375 75.1650390625 746.438476562 c 0
 65.96875 751.720703125 57.9697265625 764.59765625 57.3115234375 775.182617188 c 0
 65.1669921875 804.106445312 93.01953125 803.392578125 110.873046875 793.037109375 c 0
 194.4296875 746.438476562 288.698242188 746.438476562 379.0390625 732.155273438 c 0
 417.42578125 725.90625 458.66796875 741.439453125 498.661132812 741.795898438 c 0
 542.403320312 741.795898438 587.930664062 728.405273438 629.887695312 734.654296875 c 0
 735.046875 750.008789062 839.135742188 773.754882812 943.581054688 792.858398438 c 0
 953.7734375 792.661132812 969.770507812 789.541992188 979.2890625 785.895507812 c 1
 971.969726562 774.290039062 967.327148438 756.79296875 956.971679688 752.330078125 c 0
 921.263671875 736.618164062 881.092773438 727.870117188 845.02734375 711.265625 c 0
 830.987304688 703.862304688 816.349609375 685.385742188 812.354492188 670.0234375 c 0
 802 604.142578125 794.500976562 537.725585938 789.323242188 471.30859375 c 0
 780.0390625 362.399414062 776.825195312 252.955078125 763.970703125 144.759765625 c 0
 754.927734375 47.37890625 679.021484375 -71.6396484375 594.537109375 -120.907226562 c 0
 505.266601562 -175.540039062 407.60546875 -194.643554688 302.088867188 -199.642578125 c 0
 230.672851562 -203.03515625 177.111328125 -171.791015625 119.799804688 -148.758789062 c 0
 62.4892578125 -125.727539062 35.7080078125 -68.7734375 19.6396484375 -11.4619140625 c 0
 10.439453125 21.1337890625 1.640625 75.0439453125 0 108.873046875 c 0
 -4.28515625 222.067382812 47.669921875 311.515625 128.905273438 385.252929688 c 0
 144.26171875 396.997070312 171.856445312 410.674804688 190.501953125 415.783203125 c 0
 199.963867188 419.174804688 212.461914062 413.104492188 223.709960938 411.498046875 c 1
 220.853515625 399.892578125 221.567382812 384.716796875 214.247070312 377.932617188 c 0
 201.640625 368.231445312 180.044921875 354.234375 166.041992188 346.688476562 c 0
 106.052734375 305.981445312 83.7353515625 243.849609375 74.451171875 176.361328125 c 0
 73.201171875 167.077148438 91.0546875 152.615234375 102.838867188 145.1171875 c 0
 110.159179688 140.474609375 123.013671875 145.1171875 133.190429688 145.1171875 c 0
 193.000976562 143.153320312 211.748046875 124.763671875 212.461914062 65.3095703125 c 0
 212.629882812 63.06640625 212.766601562 59.4189453125 212.766601562 57.1689453125 c 0
 212.766601562 48.7060546875 210.870117188 35.236328125 208.534179688 27.1025390625 c 0
 188.89453125 -24.49609375 203.892578125 -70.55859375 234.065429688 -111.265625 c 0
 245.801757812 -126.370117188 270.197265625 -143.087890625 288.51953125 -148.581054688 c 0
 405.8203125 -182.146484375 550.97265625 -99.482421875 577.21875 17.4609375 c 0
 585.609375 54.240234375 579.360351562 94.2333984375 581.502929688 132.797851562 c 0
 585.609375 205.641601562 597.21484375 279.021484375 593.108398438 351.508789062 c 0
 590.608398438 398.107421875 632.922851562 421.674804688 631.8515625 461.845703125 c 0
 631.8671875 463.811523438 631.880859375 467.001953125 631.880859375 468.966796875 c 0
 631.880859375 509.87109375 626.268554688 575.7890625 619.353515625 616.104492188 c 0
 613.674804688 649.44140625 581.680664062 678.31640625 547.9375 680.556640625 c 0
 512.944335938 682.520507812 478.12890625 683.94921875 443.313476562 685.734375 c 0
EndSplineSet
EndChar

StartChar: K
Encoding: 75 75 11
Width: 1000
Flags: MW
HStem: -199.609 47.8516 -151.562 65.625 -99.6094 65.2344 128.32 60.3516
LayerCount: 2
Fore
SplineSet
829.296875 173.6328125 m 1xd0
 866.796875 156.0546875 901.5625 141.6015625 934.5703125 123.828125 c 0
 956.764648438 112.384765625 974.776367188 82.83203125 974.776367188 57.861328125 c 0
 974.776367188 49.72265625 972.251953125 37.0126953125 969.140625 29.4921875 c 0
 949.609375 -22.8515625 962.109375 -39.2578125 1020.1171875 -34.375 c 0
 1044.53125 -32.2265625 1063.671875 -31.25 1073.6328125 -60.546875 c 0
 1083.59375 -89.84375 1069.3359375 -99.609375 1044.53125 -99.609375 c 0xb0
 950 -94.3359375 880.46875 -48.828125 826.7578125 29.1015625 c 0
 801.5625 65.8203125 787.6953125 116.015625 736.1328125 129.4921875 c 0
 728.4921875 130.795898438 716 131.853515625 708.249023438 131.853515625 c 0
 703.750976562 131.853515625 696.467773438 131.49609375 691.9921875 131.0546875 c 0
 675.5859375 131.0546875 657.2265625 123.046875 643.359375 128.3203125 c 0
 629.4921875 133.59375 619.140625 151.171875 607.2265625 163.4765625 c 1
 618.1640625 172.0703125 627.9296875 185.546875 640.234375 188.671875 c 0
 686.9140625 200.390625 736.328125 203.515625 781.0546875 219.921875 c 0
 821.172851562 233.059570312 880.235351562 265.434570312 912.890625 292.1875 c 0
 951.953125 326.3671875 949.4140625 365.4296875 917.1875 404.4921875 c 0
 866.40625 466.015625 808.0078125 513.4765625 721.875 524.609375 c 0
 655.2734375 533.203125 550.390625 468.1640625 526.5625 415.234375 c 0
 518.598632812 393.58984375 500.573242188 361.302734375 486.328125 343.1640625 c 0
 472.8515625 328.3203125 447.265625 323.6328125 421.875 312.3046875 c 0
 421.836914062 310.772460938 421.805664062 308.284179688 421.805664062 306.750976562 c 0
 421.805664062 298.434570312 422.711914062 284.998046875 423.828125 276.7578125 c 0
 438.4765625 186.71875 454.4921875 97.0703125 468.9453125 7.03125 c 0
 478.7109375 -53.3203125 509.375 -87.3046875 571.484375 -85.9375 c 0
 708.203125 -83.0078125 840.8203125 -118.9453125 975.78125 -133.984375 c 0
 988.28125 -135.3515625 1000.9765625 -133.984375 1013.4765625 -136.1328125 c 0
 1042.96875 -138.8671875 1072.0703125 -142.96875 1086.71875 -178.125 c 1
 1030.6640625 -203.125 975 -188.4765625 921.09375 -183.3984375 c 0
 836.328125 -175.5859375 752.34375 -154.6875 667.1875 -151.5625 c 0
 552.1484375 -147.4609375 436.71875 -153.125 321.6796875 -158.7890625 c 0
 290.625 -160.15625 260.546875 -178.3203125 229.6875 -186.71875 c 0
 211.983398438 -192.357421875 182.583984375 -198.1328125 164.0625 -199.609375 c 0
 152.9296875 -199.609375 141.2109375 -189.2578125 129.8828125 -183.59375 c 1
 136.1328125 -172.65625 139.84375 -157.2265625 149.4140625 -151.7578125 c 0
 180.859375 -133.3984375 215.234375 -120.3125 247.0703125 -101.953125 c 0
 256.299804688 -95.4296875 264.525390625 -80.9921875 265.4296875 -69.7265625 c 0
 262.109375 43.359375 271.6796875 159.9609375 247.65625 268.9453125 c 0
 225 374.0234375 234.375 480.46875 212.3046875 585.15625 c 0
 208.984375 601.171875 213.671875 618.5546875 212.3046875 634.765625 c 0
 205.6640625 688.28125 160.3515625 725.5859375 96.875 732.421875 c 0
 76.8349609375 733.4140625 44.810546875 738.314453125 25.390625 743.359375 c 0
 14.84375 746.6796875 8.3984375 762.3046875 0 772.4609375 c 1
 9.765625 779.296875 19.53125 791.9921875 29.4921875 791.9921875 c 0
 58.59375 791.796875 88.28125 787.109375 117.1875 784.1796875 c 0
 256.8359375 770.1171875 396.6796875 743.9453125 536.1328125 745.1171875 c 0
 667.578125 747.4609375 798.4375 777.1484375 928.7109375 798.046875 c 0
 960.7421875 803.3203125 980.2734375 800.1953125 995.703125 758.984375 c 1
 959.76953125 747.186523438 900.357421875 732.3984375 863.0859375 725.9765625 c 0
 734.765625 713.28125 605.46875 704.6875 477.34375 694.53125 c 0
 441.015625 691.6015625 405.859375 688.671875 422.65625 635.9375 c 0
 424.4140625 630.859375 420.1171875 623.2421875 417.3828125 616.40625 c 0
 396.09375 569.921875 405.078125 463.0859375 436.9140625 411.9140625 c 1
 453.90625 431.4453125 470.8984375 449.0234375 485.9375 468.359375 c 0
 586.5234375 597.8515625 720.3125 630.859375 876.5625 605.078125 c 0
 878.884765625 604.78515625 882.560546875 603.91015625 884.765625 603.125 c 0
 939.2578125 580.078125 1041.015625 476.3671875 1031.0546875 394.53125 c 0
 1019.921875 299.4140625 963.671875 217.3828125 871.484375 187.6953125 c 2
 829.296875 173.6328125 l 1xd0
EndSplineSet
EndChar

StartChar: L
Encoding: 76 76 12
Width: 1000
Flags: MW
HStem: -200 21G 674.334 70.4229 675.17 61.6396 746.501 52.5303
VStem: 177.166 187.827
LayerCount: 2
Fore
SplineSet
903.275390625 -98.0419921875 m 1xb8
 878.46484375 -79.8212890625 853.654296875 -61.2138671875 828.455078125 -43.1865234375 c 0
 808.83984375 -30.916015625 778.272460938 -9.2060546875 760.224609375 5.2724609375 c 0
 672.029296875 86.68359375 692.188476562 204.1484375 797.44140625 257.258789062 c 0
 819.344726562 268.501953125 826.516601562 306.6875 842.60546875 331.110351562 c 0
 866.252929688 367.1640625 890.676757812 402.830078125 917.232421875 436.750976562 c 0
 925.681640625 446.943359375 943.049804688 457.451171875 955.999023438 460.205078125 c 0
 966.854492188 462.143554688 980.03515625 452.452148438 992.24609375 447.994140625 c 1
 988.358398438 439.978515625 980.108398438 428.341796875 973.83203125 422.01953125 c 0
 896.297851562 368.133789062 867.803710938 288.854492188 868.19140625 200.659179688 c 0
 870.170898438 154.733398438 882.415039062 81.7021484375 895.522460938 37.642578125 c 0
 910.456054688 -13.7900390625 957.609375 -81.263671875 1000.77539062 -112.967773438 c 0
 1015.89453125 -125.1796875 1022.09765625 -148.439453125 1034.50292969 -171.118164062 c 1
 872.456054688 -161.620117188 720.682617188 -153.28515625 569.295898438 -143.59375 c 0
 511.145507812 -139.911132812 452.995117188 -126.536132812 394.84375 -129.443359375 c 0
 345.508789062 -134.020507812 266.66015625 -148.262695312 218.840820312 -161.232421875 c 0
 174.452148438 -170.149414062 130.451171875 -184.880859375 77.5341796875 -200 c 1
 93.623046875 -128.66796875 144.408203125 -117.232421875 188.602539062 -103.08203125 c 0
 239.581054688 -87.5751953125 235.510742188 -87.7685546875 231.24609375 -34.8515625 c 0
 222.330078125 74.666015625 221.5546875 184.958007812 219.03515625 294.669921875 c 0
 219.03515625 319.674804688 222.330078125 338.864257812 196.549804688 359.216796875 c 0
 180.073242188 372.397460938 179.104492188 409.420898438 177.166015625 436.750976562 c 0
 173.095703125 505.369140625 173.095703125 575.34375 167.280273438 644.931640625 c 0
 164.31640625 660.11328125 151.030273438 678.696289062 137.624023438 686.412109375 c 0
 104.284179688 703.08203125 67.6484375 714.32421875 32.564453125 728.086914062 c 0
 10.2734375 737.002929688 -7.5595703125 749.409179688 3.294921875 786.043945312 c 1
 37.0224609375 780.616210938 77.5341796875 783.330078125 105.252929688 766.66015625 c 0
 157.588867188 736.227539062 213.219726562 737.197265625 267.6875 736.809570312 c 0xb8
 398.9140625 735.646484375 530.72265625 734.87109375 661.368164062 744.756835938 c 0
 739.872070312 750.572265625 816.4375 776.3515625 893.971679688 793.021484375 c 0
 903.048828125 796.482421875 918.299804688 799.291015625 928.014648438 799.291015625 c 0
 929.962890625 799.291015625 933.122070312 799.174804688 935.064453125 799.03125 c 0
 945.891601562 795.174804688 957.615234375 783.190429688 961.232421875 772.28125 c 0
 962.783203125 765.303710938 947.6640625 748.24609375 937.97265625 746.500976562 c 0
 801.124023438 722.465820312 664.276367188 699.787109375 526.846679688 679.43359375 c 0
 503.407226562 676.618164062 465.223632812 674.333984375 441.615234375 674.333984375 c 0xd8
 432.071289062 674.333984375 416.588867188 674.708007812 407.055664062 675.169921875 c 0
 373.91015625 675.169921875 364.412109375 655.786132812 364.993164062 630.19921875 c 0
 368.288085938 493.3515625 368.288085938 356.115234375 379.336914062 218.4921875 c 0
 387.033203125 144.921875 406.485351562 26.6474609375 422.756835938 -45.5126953125 c 0
 428.73828125 -57.9453125 444.629882812 -69.9287109375 458.228515625 -72.26171875 c 0
 569.295898438 -84.2802734375 680.55859375 -93.7783203125 792.013671875 -103.857421875 c 0
 827.291992188 -107.15234375 862.5703125 -109.672851562 897.848632812 -112.580078125 c 1
 903.275390625 -98.0419921875 l 1xb8
EndSplineSet
EndChar

StartChar: M
Encoding: 77 77 13
Width: 1000
Flags: MW
HStem: -200 21G
VStem: 481.775 183.637 495.246 183.24 973.851 154.913 1120.25 7.13086
LayerCount: 2
Fore
SplineSet
1115.49121094 467.392578125 m 1x90
 1120.24609375 511.96484375 l 2
 1123.21679688 510.379882812 1127.37695312 509.389648438 1127.37695312 508.201171875 c 0x88
 1128.76367188 416.0859375 1137.67871094 322.979492188 1128.76367188 230.86328125 c 0
 1122.09765625 169.197265625 1080.65234375 83.9990234375 1036.25195312 40.689453125 c 0
 1012.171875 16.345703125 976.671875 -26.1640625 957.012695312 -54.19921875 c 0
 937.203125 -80.943359375 944.73046875 -99.9599609375 980.5859375 -109.271484375 c 0
 1020.20605469 -119.374023438 1059.82519531 -135.81640625 1097.66210938 -148.890625 c 0
 1124.00976562 -158.59765625 1132.52734375 -176.228515625 1121.6328125 -200 c 1
 1015.45214844 -174.247070312 911.450195312 -144.13671875 804.674804688 -124.524414062 c 0
 684.033203125 -102.139648438 561.608398438 -87.2822265625 438.391601562 -104.71484375 c 0
 354.9921875 -116.204101562 271.592773438 -128.090820312 188.985351562 -144.333984375 c 0
 158.024414062 -152.241210938 109.567382812 -169.991210938 80.82421875 -183.954101562 c 0
 59.4296875 -192.47265625 39.6201171875 -195.443359375 30.705078125 -168.106445312 c 0
 21.791015625 -140.768554688 39.025390625 -133.04296875 62.796875 -128.486328125 c 0
 77.7900390625 -124.939453125 101.485351562 -117.21875 115.689453125 -111.251953125 c 0
 185.81640625 -87.48046875 187.995117188 -86.2919921875 155.30859375 -17.75 c 0
 128.763671875 35.3408203125 96.671875 86.8466796875 66.560546875 138.3515625 c 0
 17.0361328125 224.127929688 -14.857421875 316.640625 7.1318359375 414.302734375 c 0
 23.177734375 487.203125 43.58203125 565.649414062 118.859375 607.448242188 c 0
 128.48828125 612.74609375 141.978515625 623.928710938 148.969726562 632.409179688 c 0
 217.908203125 719.572265625 314.580078125 763.549804688 418.779296875 784.547851562 c 0
 458.188476562 793.463867188 522.96484375 800.69921875 563.370117188 800.69921875 c 0
 654.092773438 800.69921875 792.637695312 765.951171875 872.623046875 723.137695312 c 0
 963.784179688 675.466796875 1072.58886719 560.893554688 1115.49121094 467.392578125 c 1x90
476.822265625 -36.37109375 m 1
 479.001953125 -16.560546875 481.180664062 -4.6748046875 481.775390625 8.0029296875 c 0xc0
 486.727539062 117.353515625 494.453125 225.911132812 495.24609375 336.053710938 c 0xa0
 496.038085938 446.196289062 486.529296875 556.537109375 487.916015625 666.6796875 c 0
 487.916015625 736.014648438 483.162109375 744.13671875 419.770507812 717.987304688 c 0
 414.413085938 716.063476562 405.538085938 713.578125 399.959960938 712.440429688 c 0
 299.65234375 690.401367188 203.538085938 590.471679688 185.419921875 489.381835938 c 0
 165.610351562 373.890625 171.157226562 259.19140625 171.157226562 143.8984375 c 0
 171.088867188 141.641601562 171.033203125 137.975585938 171.033203125 135.717773438 c 0
 171.033203125 77.376953125 203.038085938 -4.8662109375 242.47265625 -47.8603515625 c 0
 250.8125 -57.724609375 268.030273438 -66.599609375 280.903320312 -67.669921875 c 0
 345.879882812 -59.15234375 410.459960938 -47.2666015625 476.822265625 -36.37109375 c 1
665.412109375 144.888671875 m 1
 667.330078125 104.471679688 674.075195312 39.2421875 680.467773438 -0.712890625 c 0
 684.924804688 -19.982421875 702.674804688 -43.234375 720.086914062 -52.615234375 c 0
 754.077148438 -63.3388671875 810.431640625 -75.0537109375 845.879882812 -78.763671875 c 0
 847.7421875 -79.0498046875 850.783203125 -79.28125 852.666992188 -79.28125 c 0
 862.112304688 -79.28125 875.490234375 -74.16796875 882.52734375 -67.8681640625 c 0
 929.795898438 -3.0400390625 970.708984375 114.640625 973.850585938 194.809570312 c 0
 978.208984375 265.333007812 966.521484375 337.043945312 962.559570312 408.162109375 c 0
 961.37109375 427.971679688 954.635742188 451.346679688 962.559570312 467.590820312 c 0
 982.369140625 504.239257812 959.984375 525.040039062 941.36328125 549.603515625 c 0
 931.291015625 563.083984375 916.204101562 585.803710938 907.686523438 600.317382812 c 0
 902.139648438 609.825195312 901.544921875 623.494140625 894.017578125 630.427734375 c 0
 851.161132812 670.2578125 769.069335938 706.64453125 710.776367188 711.6484375 c 0
 700.872070312 712.836914062 680.666015625 701.346679688 680.071289062 694.215820312 c 0
 674.326171875 626.465820312 669.770507812 558.3203125 669.17578125 490.372070312 c 0
 669.17578125 445.0078125 679.674804688 399.643554688 678.486328125 354.279296875 c 0xb0
 677.297851562 280.784179688 669.770507812 208.478515625 665.412109375 144.888671875 c 1
EndSplineSet
EndChar

StartChar: N
Encoding: 78 78 14
Width: 1000
Flags: MW
HStem: -196.872 39.0928 -192.768 43.002
VStem: 141.321 185.692 161.454 179.828 805.512 191.36
LayerCount: 2
Fore
SplineSet
0 -167.748046875 m 1x68
 24.8125 -154.495117188 66.7578125 -136.981445312 93.6279296875 -128.655273438 c 0
 136.825195312 -118.686523438 142.103515625 -92.884765625 141.321289062 -57.505859375 c 0
 140.34375 -10.9853515625 141.321289062 35.53515625 141.321289062 82.056640625 c 0x68
 141.287109375 82.8359375 141.258789062 84.103515625 141.258789062 84.8837890625 c 0
 141.258789062 92.412109375 143.739257812 104.10546875 146.793945312 110.985351562 c 0
 166.340820312 147.146484375 161.063476562 178.420898438 151.876953125 219.859375 c 0
 138.780273438 278.499023438 157.154296875 344.56640625 161.454101562 407.505859375 c 0
 161.77734375 413.840820312 162.0390625 424.129882812 162.0390625 430.47265625 c 0
 162.0390625 436.81640625 161.77734375 447.10546875 161.454101562 453.440429688 c 1
 147.185546875 452.072265625 132.916015625 451.680664062 118.842773438 449.334960938 c 0
 105.657226562 445.196289062 83.765625 441.080078125 69.9765625 440.1484375 c 1
 58.17578125 443.521484375 40.662109375 452.278320312 30.8837890625 459.6953125 c 1
 41.0478515625 475.723632812 50.4296875 503.870117188 61.962890625 505.629882812 c 0
 137.021484375 516.575195312 188.233398438 561.923828125 240.6171875 610.790039062 c 0
 282.772460938 652.767578125 357.556640625 713.014648438 407.544921875 745.26953125 c 0
 514.66015625 809.7734375 633.111328125 825.01953125 738.272460938 748.592773438 c 0
 816.359375 693.251953125 900.075195312 573.370117188 925.13671875 481.000976562 c 0
 942.142578125 418.647460938 941.555664062 349.6484375 990.421875 297.849609375 c 0
 994.204101562 291.41796875 997.274414062 280.143554688 997.274414062 272.681640625 c 0
 997.274414062 270.935546875 997.09375 268.112304688 996.872070312 266.379882812 c 0
 996.872070312 225.52734375 995.30859375 184.48046875 992.962890625 143.627929688 c 0
 989.4453125 84.98828125 963.643554688 55.27734375 905.58984375 41.986328125 c 0
 875.29296875 34.94921875 861.415039062 19.5078125 867.865234375 -12.158203125 c 0
 870.779296875 -36.54296875 878.572265625 -75.5107421875 885.26171875 -99.1396484375 c 0
 899.921875 -138.233398438 934.127929688 -155.43359375 978.889648438 -157.779296875 c 1
 974.98046875 -196.872070312 l 1
 902.267578125 -211.727539062 838.155273438 -164.42578125 816.067382812 -86.0439453125 c 0
 790.657226562 6.0205078125 804.338867188 98.8662109375 805.51171875 191.711914062 c 0
 805.51171875 247.419921875 814.89453125 305.27734375 803.166992188 358.444335938 c 0
 781.665039062 453.635742188 785.965820312 555.864257812 732.603515625 643.041015625 c 0
 705.43359375 687.412109375 673.963867188 730.609375 615.32421875 729.045898438 c 0
 568.948242188 728.358398438 494.865234375 718.375 449.9609375 706.762695312 c 0
 397.771484375 692.494140625 377.443359375 639.5234375 362.197265625 593.979492188 c 0
 351.384765625 555.775390625 342.014648438 492.551757812 341.282226562 452.853515625 c 0x98
 336.004882812 368.803710938 334.44140625 284.55859375 331.313476562 200.5078125 c 0
 330.3359375 168.060546875 329.75 135.61328125 328.772460938 102.775390625 c 0
 328.772460938 94.3701171875 327.404296875 86.1611328125 327.013671875 77.755859375 c 0
 325.05859375 47.849609375 322.712890625 17.748046875 321.735351562 -12.158203125 c 0
 321.735351562 -20.171875 328.967773438 -29.3583984375 327.013671875 -36.3955078125 c 0
 306.293945312 -107.154296875 364.346679688 -99.7265625 401.485351562 -110.672851562 c 0
 448.592773438 -124.74609375 496.872070312 -134.71484375 543.784179688 -149.765625 c 0
 553.166992188 -152.697265625 558.444335938 -168.139648438 565.676757812 -177.912109375 c 1
 556.098632812 -183.190429688 546.129882812 -193.159179688 536.747070312 -192.767578125 c 0
 535.538085938 -192.787109375 533.575195312 -192.802734375 532.365234375 -192.802734375 c 0
 511.274414062 -192.802734375 477.684570312 -188.145507812 457.388671875 -182.408203125 c 0
 325.645507812 -136.473632812 196.247070312 -158.952148438 66.4580078125 -190.03125 c 0
 57.9619140625 -191.005859375 44.1259765625 -191.795898438 35.57421875 -191.795898438 c 0
 27.0234375 -191.795898438 13.1875 -191.005859375 4.69140625 -190.03125 c 1
 0 -167.748046875 l 1x68
EndSplineSet
EndChar

StartChar: O
Encoding: 79 79 15
Width: 1000
Flags: MW
HStem: 613.253 46.25 702.837 41.3916
VStem: 860.863 133.501
LayerCount: 2
Fore
SplineSet
224.057617188 69.91796875 m 1
 210.260742188 16.08984375 261.5625 -80.1005859375 311.309570312 -104.974609375 c 0
 355.432617188 -127.004882812 431.266601562 -144.884765625 480.583007812 -144.884765625 c 0
 518.231445312 -144.884765625 577.423828125 -134.23046875 612.708984375 -121.103515625 c 0
 676.641601562 -98.9501953125 735.133789062 -65.9150390625 768.169921875 -1.59375 c 0
 770.298828125 2.6630859375 775 8.5830078125 778.663085938 11.62109375 c 0
 863.194335938 82.5498046875 862.611328125 181.655273438 860.86328125 277.65234375 c 0
 859.502929688 348.38671875 854.64453125 420.67578125 813.05859375 484.220703125 c 0
 805.286132812 495.879882812 815.779296875 519.393554688 818.694335938 544.073242188 c 1
 769.334960938 555.149414062 766.615234375 608.588867188 743.87890625 649.98046875 c 0
 705.013671875 719.354492188 632.724609375 731.403320312 562.184570312 743.256835938 c 0
 479.012695312 757.248046875 401.087890625 731.208984375 322.192382812 711.776367188 c 0
 309.91796875 707.905273438 289.545898438 703.901367188 276.719726562 702.836914062 c 0
 267.358398438 704.958007812 253.254882812 710.96484375 245.239257812 716.24609375 c 1
 251.845703125 725.961914062 256.509765625 741.5078125 264.671875 744.228515625 c 0
 384.181640625 781.927734375 503.109375 819.432617188 631.169921875 789.3125 c 0
 702.875976562 772.98828125 773.02734375 751.807617188 830.547851562 705.751953125 c 0
 859.26953125 681.00390625 899.490234375 635.2109375 920.326171875 603.537109375 c 0
 940.422851562 572.544921875 969.586914062 520.310546875 985.42578125 486.94140625 c 0
 991.171875 476.969726562 996.482421875 459.557617188 997.279296875 448.076171875 c 0
 997.279296875 393.470703125 996.11328125 338.670898438 994.364257812 284.065429688 c 0
 992.420898438 225.767578125 986.008789062 169.024414062 946.171875 119.666015625 c 0
 912.942382812 78.2744140625 889.234375 29.1103515625 857.170898438 -13.447265625 c 0
 841.56640625 -32.2451171875 812.315429688 -58.3623046875 791.876953125 -71.7451171875 c 0
 762.849609375 -95.3876953125 712.268554688 -128.469726562 678.973632812 -145.588867188 c 0
 502.137695312 -223.319335938 326.466796875 -225.651367188 166.1484375 -107.6953125 c 0
 115.515625 -73.5888671875 57.53515625 0.671875 36.7275390625 58.064453125 c 0
 13.6025390625 127.827148438 -7.9677734375 192.149414062 2.9150390625 266.1875 c 0
 7.212890625 311.697265625 32.0244140625 378.993164062 58.2978515625 416.401367188 c 0
 87.8349609375 455.266601562 109.793945312 503.264648438 146.1328125 534.162109375 c 0
 206.762695312 586.2421875 266.809570312 643.567382812 355.421875 647.065429688 c 0
 384.375976562 647.065429688 413.719726562 658.142578125 441.896484375 659.502929688 c 0
 452.584960938 659.502929688 463.661132812 646.676757812 474.54296875 640.0703125 c 1
 464.244140625 630.7421875 455.110351562 616.362304688 443.256835938 613.252929688 c 0
 398.755859375 601.399414062 352.701171875 594.986328125 308.200195312 583.327148438 c 0
 242.907226562 566.032226562 219.393554688 506.95703125 188.107421875 456.23828125 c 0
 182.2578125 445.57421875 171.810546875 428.858398438 164.788085938 418.927734375 c 0
 130.586914062 376.953125 141.274414062 327.788085938 146.521484375 281.927734375 c 0
 151.556640625 250.170898438 166.618164062 200.72265625 180.139648438 171.55078125 c 0
 185.969726562 157.365234375 193.9375 152.118164062 172.172851562 153.284179688 c 1
 172.172851562 153.284179688 170.423828125 151.340820312 169.840820312 150.174804688 c 0
 161.678710938 132.296875 200.73828125 72.638671875 224.057617188 69.91796875 c 1
EndSplineSet
EndChar

StartChar: P
Encoding: 80 80 16
Width: 1000
Flags: MW
HStem: -168.584 75.6797 -126.768 81.5117 562.046 61.1338 571.174 52.0059
VStem: 184.484 181.048
LayerCount: 2
Fore
SplineSet
1056.67578125 -91.5302734375 m 1x88
 1042.24121094 -55.869140625 l 1
 1057.3125 -28.69921875 1090.42675781 -51.4111328125 1096.15820312 -92.3798828125 c 0
 1099.76660156 -117.427734375 1099.12988281 -143.32421875 1101.04003906 -181.745117188 c 1
 1050.52050781 -177.075195312 999.36328125 -170.282226562 947.994140625 -168.583984375 c 0x88
 887.28515625 -166.673828125 832.731445312 -143.32421875 775.418945312 -129.102539062 c 0
 756.315429688 -124.432617188 732.965820312 -137.16796875 714.286132812 -136.956054688 c 0
 671.83203125 -133.34765625 628.104492188 -127.828125 585.013671875 -126.767578125 c 0
 531.946289062 -125.28125 478.87890625 -128.889648438 425.599609375 -126.767578125 c 0
 330.502929688 -124.219726562 243.897460938 -152.6640625 158.989257812 -190.448242188 c 0
 148.525390625 -194.924804688 130.794921875 -198.55859375 119.413085938 -198.55859375 c 0
 111.862304688 -198.55859375 99.8271484375 -196.921875 92.5498046875 -194.905273438 c 0
 73.232421875 -188.75 66.865234375 -167.098632812 91.275390625 -152.452148438 c 0
 123.96484375 -134.196289062 157.928710938 -118.064453125 191.041992188 -100.233398438 c 0
 248.779296875 -69.0302734375 249.416015625 -64.9970703125 228.401367188 -3.6513671875 c 0
 223.901367188 8.8525390625 220.249023438 29.78515625 220.249023438 43.07421875 c 0
 220.249023438 46.353515625 220.477539062 51.66796875 220.759765625 54.935546875 c 0
 229.674804688 135.385742188 213.330078125 211.801757812 194.438476562 288.431640625 c 0
 188.944335938 322.330078125 184.484375 377.713867188 184.484375 412.0546875 c 0
 184.484375 416.778320312 184.569335938 424.443359375 184.673828125 429.166015625 c 0
 184.666992188 461.19140625 181.053710938 512.923828125 176.608398438 544.640625 c 0
 174.060546875 556.52734375 147.951171875 570.325195312 132.03125 571.173828125 c 0x58
 101.676757812 572.447265625 71.1103515625 562.895507812 40.755859375 562.045898438 c 0
 28.7958984375 563.84375 10.537109375 570.120117188 0 576.055664062 c 1
 8.06640625 592.400390625 15.7080078125 622.754882812 24.4111328125 623.1796875 c 0
 139.672851562 627.424804688 221.396484375 701.506835938 309.063476562 759.880859375 c 0
 372.745117188 802.334960938 442.793945312 798.513671875 511.993164062 799.788085938 c 0
 686.478515625 803.396484375 824.029296875 726.979492188 933.984375 594.098632812 c 0
 939.909179688 585.66015625 951.606445312 574.057617188 960.09375 568.202148438 c 0
 1027.3828125 529.569335938 1034.59960938 459.944335938 1045.00097656 395.415039062 c 0
 1060.28417969 295.223632812 1023.77441406 213.076171875 952.239257812 139.41796875 c 0
 890.46875 75.7373046875 822.967773438 28.189453125 735.512695312 13.9677734375 c 0
 721.9609375 11.638671875 699.803710938 9.7490234375 686.053710938 9.7490234375 c 0
 672.303710938 9.7490234375 650.146484375 11.638671875 636.594726562 13.9677734375 c 0
 592.23046875 22.24609375 549.77734375 40.076171875 505.836914062 51.5390625 c 0
 499.767578125 52.287109375 489.876953125 52.89453125 483.76171875 52.89453125 c 0
 477.645507812 52.89453125 467.755859375 52.287109375 461.685546875 51.5390625 c 1
 468.690429688 31.5859375 434.302734375 26.916015625 451.708984375 -7.046875 c 0
 479.940429688 -62.662109375 522.819335938 -36.9775390625 557.84375 -45.255859375 c 0x68
 599.31640625 -52.5380859375 667.120117188 -59.8603515625 709.19140625 -61.6005859375 c 0
 714.370117188 -62.458984375 722.833007812 -63.15625 728.08203125 -63.15625 c 0
 730.311523438 -63.15625 733.92578125 -63.0302734375 736.149414062 -62.8740234375 c 0
 825.302734375 -49.076171875 912.7578125 -71.7890625 999.151367188 -91.5302734375 c 0
 1007.07128906 -92.2890625 1019.95703125 -92.904296875 1027.91308594 -92.904296875 c 0
 1035.87011719 -92.904296875 1048.75585938 -92.2890625 1056.67578125 -91.5302734375 c 1x88
430.057617188 168.499023438 m 1
 445.765625 164.465820312 476.543945312 165.952148438 490.978515625 151.092773438 c 0
 537.465820312 103.756835938 594.353515625 99.51171875 654.850585938 92.294921875 c 0
 741.03125 82.318359375 839.736328125 152.791015625 845.892578125 239.609375 c 0
 849.713867188 299.469726562 839.524414062 360.178710938 841.22265625 420.25 c 0
 842.920898438 480.322265625 823.391601562 524.474609375 801.740234375 576.905273438 c 0
 744.852539062 711.908203125 571.215820312 762.640625 458.2890625 736.319335938 c 1
 409.662109375 729.138671875 370.197265625 683.416992188 370.197265625 634.263671875 c 2
 370.197265625 634.217773438 l 2
 367.622070312 607.681640625 365.532226562 564.5078125 365.532226562 537.846679688 c 0
 365.532226562 523.953125 366.100585938 501.416015625 366.80078125 487.540039062 c 0
 374.8671875 410.698242188 390.150390625 334.706054688 404.16015625 258.713867188 c 0
 409.254882812 231.54296875 419.444335938 205.646484375 430.057617188 168.499023438 c 1
EndSplineSet
EndChar

StartChar: Q
Encoding: 81 81 17
Width: 1000
Flags: MW
HStem: -199.829 21G -9.86133 51.7402
VStem: 704.855 128.819
LayerCount: 2
Fore
SplineSet
249.73828125 633.216796875 m 1
 231.051757812 618.372070312 216.381835938 606.322265625 201.1875 594.795898438 c 0
 174.641601562 574.013671875 141.634765625 557.771484375 120.328125 532.099609375 c 0
 69.8564453125 472.022460938 88.5439453125 411.072265625 127.48828125 351.869140625 c 0
 177.086914062 276.59765625 220.921875 196.786132812 276.458007812 126.40625 c 0
 303.353515625 91.4775390625 351.030273438 74.013671875 390.150390625 50.611328125 c 0
 393.817382812 48.515625 409.53515625 56.3740234375 410.234375 60.9150390625 c 0
 413.7265625 87.984375 445.162109375 116.1015625 408.836914062 143.345703125 c 0
 406.676757812 146.547851562 404.923828125 152.280273438 404.923828125 156.142578125 c 0
 404.923828125 159.075195312 405.97265625 163.591796875 407.264648438 166.224609375 c 0
 413.553710938 172.990234375 426.149414062 178.701171875 435.3828125 178.97265625 c 0
 493.188476562 171.2890625 538.420898438 120.9921875 479.392578125 41.87890625 c 1
 501.821289062 42.587890625 538.046875 45.7958984375 560.251953125 49.0390625 c 0
 658.400390625 69.47265625 705.553710938 132.8671875 704.85546875 231.365234375 c 0
 704.85546875 286.552734375 707.82421875 343.834960938 694.725585938 396.40234375 c 0
 679.357421875 457.002929688 648.4453125 513.586914062 622.948242188 571.043945312 c 0
 599.9375 622.104492188 543.291992188 688.529296875 496.506835938 719.315429688 c 0
 431.540039062 763.325195312 356.793945312 763.5 283.79296875 738.001953125 c 0
 236.639648438 721.5859375 192.28125 696.9609375 145.127929688 680.1953125 c 0
 129.758789062 674.78125 110.19921875 682.465820312 92.7353515625 684.211914062 c 1
 100.0703125 697.833984375 103.912109375 717.569335938 115.438476562 724.5546875 c 0
 223.890625 790.39453125 341.774414062 817.463867188 466.9921875 788.997070312 c 0
 551.869140625 769.961914062 622.7734375 720.88671875 690.883789062 668.84375 c 0
 714.634765625 651.379882812 745.372070312 634.962890625 758.295898438 610.513671875 c 0
 815.578125 502.060546875 856.26953125 388.369140625 834.7890625 261.229492188 c 0
 834.173828125 256.598632812 833.674804688 249.047851562 833.674804688 244.376953125 c 0
 833.674804688 239.705078125 834.173828125 232.154296875 834.7890625 227.5234375 c 0
 837.583007812 203.073242188 833.56640625 182.640625 809.640625 170.06640625 c 0
 804.684570312 167.920898438 798.50390625 162.366210938 795.84375 157.666992188 c 0
 763.53515625 77.505859375 681.802734375 54.802734375 621.201171875 9.046875 c 0
 586.2734375 -17.1494140625 538.072265625 -0.3837890625 496.33203125 -8.41796875 c 0
 484.874023438 -9.21484375 466.25390625 -9.861328125 454.767578125 -9.861328125 c 0
 443.282226562 -9.861328125 424.661132812 -9.21484375 413.203125 -8.41796875 c 0
 375.305664062 -9.640625 361.68359375 -40.376953125 374.78125 -76.703125 c 0
 400.62890625 -148.48046875 513.272460938 -148.830078125 570.03125 -119.665039062 c 0
 621.02734375 -93.46875 669.40234375 -62.3818359375 719.17578125 -34.08984375 c 0
 731.225585938 -27.279296875 744.84765625 -23.2626953125 767.02734375 -14.005859375 c 1
 744.647460938 -72.0693359375 679.083007812 -136.6171875 620.677734375 -158.0859375 c 0
 572.966796875 -178.81640625 492.06640625 -197.515625 440.09765625 -199.825195312 c 0
 439.583007812 -199.827148438 438.749023438 -199.829101562 438.234375 -199.829101562 c 0
 383.0703125 -199.829101562 297.841796875 -180.659179688 247.991210938 -157.038085938 c 0
 241.642578125 -153.590820312 234.444335938 -145.296875 231.924804688 -138.526367188 c 0
 227.098632812 -126.100585938 223.182617188 -105.196289062 223.182617188 -91.8662109375 c 0
 223.182617188 -55.328125 247.284179688 -8.3974609375 276.982421875 12.888671875 c 0
 278.728515625 14.2861328125 279.078125 17.2548828125 280.474609375 20.3984375 c 1
 214.060546875 33.927734375 128.466796875 89.869140625 89.4169921875 145.267578125 c 0
 62.740234375 181.25390625 29.33203125 244.86328125 14.8447265625 287.250976562 c 0
 0 340.342773438 1.0478515625 398.323242188 0 455.08203125 c 0
 0 471.672851562 13.9716796875 490.010742188 24.625 505.204101562 c 0
 40.3427734375 527.55859375 61.4736328125 546.419921875 75.4453125 569.47265625 c 0
 108.278320312 624.135742188 161.71875 637.932617188 218.302734375 647.013671875 c 0
 218.58203125 647.025390625 219.037109375 647.034179688 219.31640625 647.034179688 c 0
 222.197265625 647.034179688 226.671875 646.0859375 229.3046875 644.91796875 c 0
 232.797851562 642.822265625 235.766601562 641.25 249.73828125 633.216796875 c 1
EndSplineSet
EndChar

StartChar: R
Encoding: 82 82 18
Width: 1000
Flags: MW
HStem: -190.715 57.8711 -179.918 42.3232 165.147 47.29
VStem: 159.36 172.533 163.896 151.488
LayerCount: 2
Fore
SplineSet
606.1328125 -179.486328125 m 1x68
 594.59375 -181.056640625 575.778320312 -182.33203125 564.1328125 -182.33203125 c 0
 552.48828125 -182.33203125 533.671875 -181.056640625 522.133789062 -179.486328125 c 0
 376.80859375 -136.298828125 233.858398438 -131.547851562 91.556640625 -190.71484375 c 0
 71.6904296875 -198.919921875 43.1875 -213.603515625 32.822265625 -179.270507812 c 0
 23.7529296875 -149.0390625 50.09765625 -141.265625 72.7705078125 -132.84375 c 0
 104.512695312 -121.18359375 147.484375 -116.6484375 163.895507812 -93.5439453125 c 0
 180.306640625 -70.4384765625 163.895507812 -30.921875 163.895507812 1.6845703125 c 0xa8
 162.16796875 127.791015625 161.087890625 253.681640625 159.360351562 379.572265625 c 0
 159.360351562 444.353515625 157.416992188 509.133789062 155.2578125 573.915039062 c 0
 153.530273438 610.83984375 129.561523438 622.068359375 86.3740234375 614.079101562 c 0
 77.3525390625 612.201171875 62.5517578125 610.677734375 53.3359375 610.677734375 c 0
 44.12109375 610.677734375 29.3203125 612.201171875 20.2978515625 614.079101562 c 0
 11.0126953125 615.806640625 6.478515625 637.400390625 0 650.140625 c 1
 31.958984375 661.369140625 l 2
 80.1123046875 677.99609375 129.561523438 692.032226562 175.771484375 711.682617188 c 0
 202.587890625 723.973632812 244.668945312 746.610351562 269.704101562 762.2109375 c 0
 274.455078125 765.018554688 275.75 773.223632812 279.853515625 777.758789062 c 0
 286.979492188 785.748046875 295.184570312 799.352539062 302.7421875 799.352539062 c 0
 390.627929688 797.625 481.10546875 805.830078125 565.752929688 787.69140625 c 0
 681.709960938 762.859375 792.916992188 723.990234375 886.202148438 636.536132812 c 0
 985.31640625 544.979492188 1004.75097656 431.397460938 1015.76367188 309.177734375 c 0
 1022.67285156 235.758789062 961.34765625 174.000976562 905.635742188 155.862304688 c 0
 862.151367188 143.750976562 790.7578125 127.692382812 746.275390625 120.017578125 c 1
 751.3125 113.586914062 760.30859375 103.913085938 766.357421875 98.423828125 c 0
 800.318359375 71.5458984375 839.884765625 16.6943359375 854.674804688 -24.01171875 c 0
 873.029296875 -77.7802734375 914.2734375 -105.419921875 966.530273438 -120.750976562 c 0
 977.962890625 -123.271484375 994.98828125 -130.817382812 1004.53417969 -137.594726562 c 0
 1011.44824219 -144.70703125 1017.05859375 -158.529296875 1017.05859375 -168.448242188 c 2
 1017.05859375 -168.473632812 l 2
 1017.05859375 -172.576171875 999.13671875 -181.4296875 990.930664062 -179.91796875 c 0
 947.743164062 -171.928710938 904.556640625 -160.916015625 859.641601562 -151.4140625 c 0
 847.950195312 -148.091796875 828.602539062 -145.092773438 816.454101562 -144.720703125 c 0
 743.251953125 -147.311523438 681.92578125 -129.8203125 657.741210938 -41.9345703125 c 0
 657.711914062 -41.1875 657.688476562 -39.9736328125 657.688476562 -39.2255859375 c 0
 657.688476562 -25.9580078125 664.38671875 -6.759765625 672.640625 3.6279296875 c 0
 708.270507812 58.4755859375 705.678710938 79.6376953125 648.887695312 111.595703125 c 0
 625.869140625 122.369140625 587.172851562 136.106445312 562.513671875 142.258789062 c 0
 541.220703125 147.336914062 507.264648438 157.590820312 486.719726562 165.147460938 c 0
 475.275390625 170.545898438 469.4453125 187.821289062 461.0234375 199.481445312 c 1
 474.1953125 204.232421875 488.015625 214.165039062 500.108398438 212.4375 c 0
 555.603515625 204.6640625 610.451171875 193.219726562 665.514648438 183.286132812 c 0
 670.866210938 182.513671875 679.596679688 181.885742188 685.002929688 181.885742188 c 0
 719.227539062 181.885742188 765.251953125 202.828125 787.734375 228.6328125 c 0
 829.430664062 273.66796875 863.271484375 360.028320312 863.271484375 421.40234375 c 0
 863.271484375 450.522460938 854.776367188 496.2109375 844.310546875 523.385742188 c 0
 827.250976562 562.686523438 832.865234375 609.760742188 785.791015625 639.127929688 c 0
 651.911132812 720.103515625 513.064453125 768.689453125 355.21484375 728.09375 c 0
 310.515625 716.432617188 312.02734375 700.021484375 325.416015625 654.458984375 c 0
 338.803710938 608.896484375 331.030273438 559.87890625 331.893554688 512.373046875 c 0x70
 332.973632812 447.592773438 321.9609375 381.515625 336.860351562 321.053710938 c 0
 355.21484375 247.204101562 337.940429688 176.376953125 341.39453125 105.118164062 c 0
 339.959960938 74.06640625 330.286132812 25.1162109375 319.801757812 -4.1455078125 c 0
 317.362304688 -10.181640625 315.383789062 -20.3642578125 315.383789062 -26.875 c 0
 315.383789062 -56.369140625 339.12890625 -83.3349609375 368.38671875 -87.0654296875 c 0
 430.79296875 -100.885742188 493.4140625 -114.057617188 554.956054688 -130.252929688 c 0
 571.403320312 -137.140625 596.072265625 -151.749023438 610.01953125 -162.859375 c 1
 606.1328125 -179.486328125 l 1x68
EndSplineSet
EndChar

StartChar: S
Encoding: 83 83 19
Width: 1000
Flags: MW
HStem: 282.271 179.181 738.743 60.1689
LayerCount: 2
Fore
SplineSet
0 -184.990234375 m 1
 19.3603515625 -128.431640625 43.5068359375 -79.0517578125 51.7724609375 -27.49609375 c 0
 54.8212890625 1.046875 57.2958984375 47.509765625 57.2958984375 76.21484375 c 0
 57.2958984375 99.2666015625 55.6982421875 136.615234375 53.73046875 159.58203125 c 0
 50.056640625 176.1484375 37.97265625 199.926757812 26.7568359375 212.66015625 c 0
 14.1396484375 231.368164062 -3.48046875 249.206054688 24.36328125 267.26171875 c 0
 52.2080078125 285.31640625 71.568359375 275.309570312 86.578125 248.553710938 c 0
 115.29296875 196.780273438 140.961914062 142.615234375 173.591796875 93.8876953125 c 0
 231.2421875 4.16796875 360.272460938 -95.6259765625 461.60546875 -128.866210938 c 0
 540.352539062 -153.665039062 616.923828125 -128.866210938 694.1484375 -117.336914062 c 0
 798.564453125 -100.370117188 865.129882812 -32.716796875 925.168945312 45.8125 c 0
 953.448242188 82.79296875 940.831054688 149.140625 908.635742188 180.900390625 c 0
 802.697265625 286.404296875 666.95703125 277.919921875 534.9140625 282.271484375 c 0
 434.92578125 283.670898438 286.209960938 329.766601562 202.958007812 385.1640625 c 0
 137.698242188 428.670898438 105.50390625 571.807617188 145.529296875 643.375976562 c 0
 160.518554688 669.50390625 187.124023438 710.434570312 204.916015625 734.740234375 c 0
 211.276367188 741.390625 223.848632812 747.724609375 232.978515625 748.879882812 c 0
 301.065429688 763.01953125 369.806640625 776.2890625 437.676757812 786.948242188 c 0
 472.235351562 792.403320312 528.661132812 797.762695312 563.62890625 798.912109375 c 0
 622.797851562 800.870117188 682.18359375 798.912109375 713.7265625 798.912109375 c 1
 902.762695312 696.889648438 l 1
 970.198242188 711.24609375 978.899414062 816.967773438 1074.39648438 789.776367188 c 1
 1056.99414062 743.44140625 1040.4609375 699.282226562 1023.49316406 654.470703125 c 1
 1041.11425781 654.470703125 l 1
 1041.11425781 596.82421875 1004.56835938 540.483398438 1045.02929688 484.141601562 c 0
 1049.81542969 477.616210938 1038.06835938 452.1640625 1027.40917969 443.8984375 c 0
 1022.48144531 441.409179688 1014.00195312 439.389648438 1008.48144531 439.389648438 c 0
 1002.16113281 439.389648438 992.611328125 441.994140625 987.166015625 445.203125 c 0
 976.16015625 460.111328125 960.665039062 485.7421875 952.578125 502.415039062 c 0
 924.733398438 545.920898438 904.28515625 598.12890625 865.564453125 627.931640625 c 0
 787.549804688 689.099609375 643.776367188 738.743164062 544.640625 738.743164062 c 0
 524.505859375 738.743164062 491.984375 736.462890625 472.046875 733.65234375 c 0
 394.169921875 723.86328125 312.16015625 704.938476562 256.689453125 643.158203125 c 0
 234.935546875 619.447265625 219.2734375 565.499023438 232.107421875 543.09375 c 0
 249.728515625 511.986328125 294.974609375 493.278320312 331.73828125 477.833007812 c 0
 357.779296875 469.3046875 401.147460938 461.80078125 428.540039062 461.083007812 c 0
 438.676757812 460.453125 455.147460938 459.94140625 465.303710938 459.94140625 c 0
 475.459960938 459.94140625 491.9296875 460.453125 502.06640625 461.083007812 c 0
 507.166015625 461.287109375 515.447265625 461.452148438 520.551757812 461.452148438 c 0
 572.977539062 461.452148438 654.647460938 444.719726562 702.849609375 424.102539062 c 0
 716.67578125 418.369140625 740.043945312 413.716796875 755.01171875 413.716796875 c 0
 765.236328125 413.716796875 781.532226562 415.932617188 791.385742188 418.6640625 c 0
 867.740234375 443.245117188 910.159179688 386.904296875 963.01953125 355.362304688 c 0
 971.227539062 349.176757812 983.01953125 337.580078125 989.340820312 329.475585938 c 0
 1015.66210938 302.284179688 1037.41601562 277.703125 1028.49707031 231.5859375 c 0
 1018.49023438 180.030273438 1031.10742188 124.341796875 1021.31835938 73.00390625 c 0
 1013.26953125 31.0205078125 996.301757812 -18.5771484375 965.84765625 -44.4638671875 c 0
 903.6328125 -97.5419921875 835.327148438 -151.272460938 758.973632812 -177.811523438 c 0
 688.057617188 -202.828125 604.524414062 -201.740234375 527.517578125 -197.389648438 c 0
 417.228515625 -190.86328125 316.510742188 -155.623046875 240.591796875 -65.564453125 c 0
 216.010742188 -36.4150390625 175.33203125 -20.7529296875 142.266601562 1.0009765625 c 1
 128.24609375 -25.37109375 108.755859375 -69.615234375 98.759765625 -97.759765625 c 0
 77.224609375 -174.11328125 79.181640625 -174.766601562 0 -184.990234375 c 1
EndSplineSet
EndChar

StartChar: T
Encoding: 84 84 20
Width: 1000
Flags: MW
HStem: 577.475 24.0439
LayerCount: 2
Fore
SplineSet
297.868164062 626.73046875 m 1
 270.22265625 565.599609375 239.462890625 505.5390625 215.80859375 443.142578125 c 0
 198.7734375 398.948242188 182.322265625 352.224609375 179.3046875 305.59765625 c 0
 169.765625 157.5390625 180.862304688 16.1982421875 311.49609375 -87.27734375 c 0
 415.263671875 -169.62890625 590.1875 -189.487304688 703.689453125 -120.178710938 c 0
 756.837890625 -87.6669921875 811.544921875 -53.0126953125 853.3046875 -7.943359375 c 0
 927.090820312 71.6826171875 955.514648438 168.149414062 918.71875 276.296875 c 0
 904.701171875 317.764648438 810.181640625 366.825195312 748.077148438 365.754882812 c 0
 675.16796875 364.489257812 611.797851562 336.551757812 551.54296875 297.615234375 c 0
 529.446289062 283.403320312 505.012695312 256.633789062 469.483398438 293.4296875 c 1
 527.608398438 342.55859375 635.455078125 394.018554688 710.2109375 408.293945312 c 0
 794.801757812 425.5234375 864.694335938 403.71875 926.311523438 342.198242188 c 0
 979.947265625 288.659179688 996.982421875 196.184570312 972.549804688 123.858398438 c 0
 940.2578125 23.794921875 838.4296875 -96.9599609375 745.254882812 -145.682617188 c 0
 653.655273438 -195.03515625 553.586914062 -205.743164062 448.45703125 -197.372070312 c 0
 378.868164062 -192.916992188 275.993164062 -156.895507812 218.826171875 -116.966796875 c 0
 130.147460938 -54.47265625 49.4501953125 20.091796875 16.255859375 126.389648438 c 0
 0 178.857421875 -6.619140625 242.811523438 8.46875 293.818359375 c 0
 23.556640625 344.826171875 69.5029296875 390.090820312 104.740234375 435.549804688 c 0
 150.491210938 494.5390625 198.579101562 551.776367188 246.860351562 608.819335938 c 0
 256.58984375 618.2265625 273.815429688 631.658203125 285.310546875 638.80078125 c 1
 297.868164062 626.73046875 l 1
11.6806640625 601.518554688 m 1
 46.3349609375 618.845703125 79.8212890625 639.96875 115.934570312 652.915039062 c 0
 234.303710938 695.064453125 351.893554688 741.594726562 473.279296875 772.2578125 c 0
 559.427734375 794.0625 651.319335938 798.344726562 740.776367188 800 c 0
 811.05859375 801.265625 816.022460938 787.248046875 832.959960938 721.639648438 c 0
 838.970703125 704.052734375 857.985351562 684.515625 875.401367188 678.030273438 c 0
 907.426757812 669.950195312 942.373046875 674.525390625 975.859375 670.923828125 c 0
 988.223632812 668.157226562 1007.45605469 661.310546875 1018.78710938 655.640625 c 1
 1004.38085938 647.659179688 989.583984375 631.791992188 975.76171875 632.765625 c 0
 892.046875 638.8984375 808.819335938 651.065429688 725.202148438 657.1015625 c 0
 592.232421875 666.834960938 458.19140625 685.817382812 326.09765625 676.569335938 c 0
 241.701171875 670.729492188 160.615234375 620.889648438 77.2900390625 591.686523438 c 0
 61.6435546875 586.938476562 35.9130859375 580.571289062 19.857421875 577.474609375 c 1
 17.1318359375 585.846679688 14.40625 593.536132812 11.6806640625 601.518554688 c 1
EndSplineSet
EndChar

StartChar: U
Encoding: 85 85 21
Width: 1000
Flags: MW
HStem: 694.754 30.9053 760.708 39.292
LayerCount: 2
Fore
SplineSet
1115.50097656 -196.653320312 m 2
 1114.15429688 -196.725585938 1111.96777344 -196.783203125 1110.61914062 -196.783203125 c 0
 1104.92382812 -196.783203125 1095.79492188 -195.7578125 1090.2421875 -194.495117188 c 0
 970.20703125 -149.9140625 847.90625 -150.668945312 726.14453125 -181.541015625 c 0
 560.340820312 -223.639648438 404.145507812 -193.091796875 269.862304688 -98.423828125 c 0
 129.533203125 -0.0859375 42.0986328125 140.349609375 33.89453125 318.674804688 c 0
 31.412109375 373.40234375 77.072265625 440.543945312 127.159179688 448.208007812 c 0
 188.36328125 457.491210938 212.651367188 494.30078125 223.661132812 547.301757812 c 0
 231.973632812 587.564453125 242.551757812 628.15234375 243.19921875 668.846679688 c 0
 243.19921875 682.448242188 218.803710938 704.46875 201.749023438 709.21875 c 0
 151.123046875 723.359375 97.150390625 729.8359375 45.66015625 741.817382812 c 0
 31.8115234375 745.961914062 11.6455078125 756.939453125 0.6474609375 766.321289062 c 0
 -2.05078125 768.48046875 3.994140625 791.256835938 8.958984375 792.444335938 c 0
 18.3515625 795.022460938 33.87890625 797.114257812 43.619140625 797.114257812 c 0
 48.978515625 797.114257812 57.630859375 796.47265625 62.931640625 795.682617188 c 0
 132.555664062 781.43359375 201.208984375 762.758789062 270.94140625 749.158203125 c 0
 338.29296875 736.186523438 448.623046875 725.659179688 517.212890625 725.659179688 c 0
 592.774414062 725.659179688 714.0859375 738.411132812 787.99609375 754.123046875 c 0
 847.366210938 766.321289062 905.33203125 786.075195312 964.59375 800 c 0
 976.791992188 802.698242188 991.904296875 792.875976562 1005.61328125 789.205078125 c 1
 996.869140625 779.274414062 989.205078125 762.435546875 978.951171875 760.708007812 c 0
 892.594726562 746.243164062 890.759765625 676.943359375 892.594726562 616.494140625 c 0
 898.208007812 464.615234375 912.1328125 313.061523438 923.143554688 161.399414062 c 0
 924.978515625 136.35546875 931.779296875 111.63671875 932.2109375 86.701171875 c 0
 933.721679688 -21.2431640625 987.046875 -95.185546875 1080.52636719 -144.408203125 c 0
 1093.82714844 -153.094726562 1113.75097656 -169.24609375 1125 -180.461914062 c 1
 1115.50097656 -196.653320312 l 2
546.30859375 -153.475585938 m 1
 592.616210938 -146.783203125 648.31640625 -142.681640625 701.640625 -129.944335938 c 0
 758.204101562 -115.911132812 779.46875 -73.4892578125 771.048828125 -15.5224609375 c 0
 765.436523438 23.2294921875 761.658203125 62.3056640625 757.879882812 101.2734375 c 0
 741.041015625 277.655273438 725.49609375 454.037109375 707.25390625 630.203125 c 0
 703.043945312 671.114257812 679.188476562 689.680664062 633.311523438 688.600585938 c 0
 539.076171875 686.442382812 444.516601562 688.600585938 350.49609375 694.75390625 c 0
 315.522460938 697.020507812 305.267578125 691.19140625 298.250976562 656.001953125 c 0
 274.395507812 535.966796875 243.307617188 417.3359375 219.01953125 297.409179688 c 0
 197.430664062 193.350585938 208.225585938 88.212890625 260.0390625 -2.78515625 c 0
 318.436523438 -105.548828125 426.381835938 -133.9375 546.30859375 -153.583984375 c 1
 546.30859375 -153.475585938 l 1
EndSplineSet
EndChar

StartChar: V
Encoding: 86 86 22
Width: 1000
Flags: MW
HStem: 709.522 60.1387
LayerCount: 2
Fore
SplineSet
966.09765625 771.388671875 m 1
 846.469726562 725.177734375 l 1
 880.047851562 642.690429688 915.78515625 563.2265625 945.043945312 480.954101562 c 0
 1001.08007812 323.64453125 960.916015625 180.586914062 866.3359375 51.4580078125 c 0
 804.145507812 -33.62109375 728.244140625 -104.772460938 624.271484375 -140.6171875 c 0
 579.788085938 -155.94921875 539.408203125 -183.157226562 494.709960938 -199.568359375 c 0
 485.532226562 -203.0234375 459.620117188 -185.963867188 454.977539062 -173.33203125 c 0
 418.916015625 -74.7568359375 381.8828125 23.8173828125 353.487304688 124.767578125 c 0
 308.7890625 284.776367188 215.936523438 427.833984375 191.103515625 595.508789062 c 0
 186.4609375 626.7109375 146.836914062 656.833984375 116.9296875 678.643554688 c 0
 93.392578125 695.594726562 58.4111328125 695.703125 31.634765625 709.522460938 c 0
 17.5986328125 716.756835938 10.796875 737.270507812 0 751.846679688 c 1
 15.763671875 758.216796875 32.390625 771.604492188 47.181640625 769.661132812 c 0
 119.413085938 760.051757812 190.563476562 740.509765625 263.118164062 735.327148438 c 0
 472.036132812 720.643554688 680.198242188 717.728515625 881.55859375 795.573242188 c 0
 905.3125 804.750976562 935.54296875 796.760742188 963.075195312 796.760742188 c 1
 964.154296875 788.33984375 965.125976562 779.91796875 966.09765625 771.388671875 c 1
615.41796875 -89.98046875 m 1
 707.298828125 -23.580078125 l 2
 794.950195312 38.5546875 882.015625 174.715820312 901.641601562 280.349609375 c 0
 911.358398438 328.071289062 915.029296875 382.595703125 901.641601562 428.049804688 c 0
 882.487304688 488.9765625 841.083007812 583.345703125 809.220703125 638.6953125 c 0
 788.166992188 674.541015625 753.6171875 701.857421875 701.791992188 696.026367188 c 0
 611.422851562 685.76953125 520.40625 681.55859375 429.8203125 673.461914062 c 0
 368.602539062 667.955078125 348.520507812 642.366210938 370.762695312 585.251953125 c 0
 411.142578125 481.169921875 458.540039062 380.112304688 501.619140625 276.678710938 c 0
 515.24609375 244.307617188 534.59375 190.762695312 544.806640625 157.158203125 c 0
 567.803710938 80.716796875 588.534179688 3.6279296875 615.41796875 -89.98046875 c 1
EndSplineSet
EndChar

StartChar: W
Encoding: 87 87 23
Width: 1000
Flags: MW
HStem: 690.849 36.9121 752.37 47.6299 771.003 25.9102<0 3.63867>
VStem: 621.059 83.1309<236.604 296.472>
LayerCount: 2
Fore
SplineSet
3.638671875 796.913085938 m 2xb0
 7.255859375 797.138671875 13.1328125 797.322265625 16.7568359375 797.322265625 c 0
 26.6884765625 797.322265625 42.693359375 795.953125 52.48046875 794.266601562 c 0
 214.112304688 746.52734375 380.043945312 734.950195312 547.298828125 733.296875 c 0
 635.501953125 732.415039062 722.822265625 727.232421875 810.473632812 727.784179688 c 0
 812.25 727.771484375 815.133789062 727.760742188 816.91015625 727.760742188 c 0
 911.29296875 727.760742188 1059.01074219 756.221679688 1146.63769531 791.290039062 c 0
 1156.53417969 796.166992188 1173.52148438 800.125976562 1184.5546875 800.125976562 c 0
 1185.8359375 800.125976562 1187.91503906 800.069335938 1189.1953125 800 c 0
 1198.91796875 796.383789062 1209.48828125 785.467773438 1212.7890625 775.633789062 c 0
 1214.6640625 770.12109375 1204.52050781 754.90625 1197.0234375 752.370117188 c 0xd0
 1167.07226562 742.258789062 1117.67871094 728.67578125 1086.76953125 722.05078125 c 0
 1049.39355469 714.333007812 1028.00488281 708.37890625 1057.22167969 662.844726562 c 0
 1106.92773438 587.924804688 1180.42578125 462.120117188 1221.27929688 382.028320312 c 0
 1312.23828125 196.471679688 1202.86621094 -7.38671875 1054.13476562 -92.0615234375 c 0
 891.510742188 -185.005859375 715.766601562 -220.506835938 535.942382812 -187.651367188 c 0
 387.76171875 -160.639648438 239.25 -110.473632812 133.626953125 8.1591796875 c 0
 38.1474609375 115.766601562 8.048828125 243.549804688 52.701171875 384.78515625 c 0
 82.4697265625 478.831054688 107.828125 574.751953125 143.330078125 666.592773438 c 0
 164.057617188 719.845703125 139.139648438 731.532226562 99.228515625 742.557617188 c 0
 66.15234375 751.708984375 33.076171875 761.521484375 0 771.002929688 c 1
 3.638671875 796.913085938 l 2xb0
621.05859375 236.604492188 m 1
 616.538085938 385.998046875 564.057617188 522.4921875 504.630859375 656.669921875 c 0
 496.473632812 669.928710938 477.506835938 683.36328125 462.29296875 686.659179688 c 0
 421.609375 695.58984375 379.93359375 699.44921875 338.478515625 704.630859375 c 0
 233.737304688 717.750976562 230.209960938 715.65625 189.1953125 616.427734375 c 0
 179.493164062 592.723632812 170.783203125 568.578125 160.087890625 545.314453125 c 0
 142.557617188 507.056640625 150.49609375 477.288085938 188.643554688 458.434570312 c 0
 234.178710938 435.83203125 234.729492188 402.094726562 214.553710938 362.513671875 c 0
 202.866210938 339.581054688 186.21875 318.412109375 179.93359375 294.045898438 c 0
 165.049804688 236.604492188 138.69921875 175.633789062 146.857421875 120.396484375 c 0
 159.426757812 33.296875 221.499023438 -27.673828125 306.946289062 -57.9931640625 c 0
 354.76953125 -76.4013671875 433.798828125 -101.938476562 483.3515625 -114.994140625 c 0
 500.9921875 -119.184570312 532.965820312 -104.8515625 543.880859375 -88.974609375 c 0
 610.915039062 8.7099609375 607.607421875 124.697265625 621.389648438 236.604492188 c 1
 621.05859375 236.604492188 l 1
694.928710938 298.236328125 m 1
 704.189453125 296.471679688 l 1
 706.063476562 269.239257812 704.189453125 241.344726562 710.583984375 215.104492188 c 0
 731.752929688 124.916992188 756.450195312 35.6123046875 778.169921875 -54.35546875 c 0
 791.1796875 -108.599609375 814.6640625 -132.194335938 865.270507812 -115.986328125 c 0
 930.319335938 -95.0390625 997.57421875 -70.4521484375 1052.70117188 -32.1943359375 c 0
 1155.78808594 38.478515625 1169.34960938 131.532226562 1104.18945312 239.029296875 c 0
 1087.2109375 267.14453125 1064.38769531 291.951171875 1049.0625 320.6171875 c 0
 1030.09960938 355.458007812 1003.08691406 401.543945312 1045.75488281 428.88671875 c 0
 1111.90722656 471.223632812 1083.46191406 511.135742188 1057.99316406 556.119140625 c 0
 1051.73925781 566.3125 1042.94726562 583.55078125 1038.36816406 594.59765625 c 0
 1009.26171875 673.09765625 974.751953125 695.810546875 891.510742188 690.848632812 c 0
 883.91796875 690.947265625 871.66796875 691.984375 864.16796875 693.1640625 c 0
 778.390625 700.55078125 766.813476562 695.1484375 750.716796875 615.325195312 c 0
 729.768554688 510.143554688 713.561523438 403.96875 695.258789062 298.236328125 c 1
 694.928710938 298.236328125 l 1
EndSplineSet
EndChar

StartChar: X
Encoding: 88 88 24
Width: 1000
Flags: MW
HStem: 749.589 48.2549 780 20G
VStem: 20.5342 32.3408
LayerCount: 2
Fore
SplineSet
694.763671875 717.864257812 m 1xa0
 645.072265625 769.19921875 561.293945312 732.95703125 524.845703125 800 c 1x60
 661.293945312 787.782226562 794.661132812 745.482421875 931.211914062 797.84375 c 1
 933.3671875 790.143554688 935.5234375 782.340820312 937.577148438 774.538085938 c 1
 921.252929688 765.9140625 905.44140625 751.12890625 888.3984375 749.588867188 c 0
 754.620117188 737.372070312 677.618164062 646.919921875 604.415039062 549.486328125 c 0
 585.459960938 523.434570312 551.8828125 483.510742188 529.465820312 460.369140625 c 0
 508.0078125 438.80859375 501.12890625 420.225585938 519.19921875 393.737304688 c 0
 593.223632812 284.39453125 662.936523438 172.176757812 742.094726562 66.119140625 c 0
 770.020507812 27.8232421875 812.217773438 -11.087890625 873.716796875 17.6591796875 c 0
 883.983398438 22.484375 901.4375 12.7314453125 915.60546875 9.6513671875 c 1
 910.575195312 -3.1826171875 908.418945312 -18.3779296875 900.102539062 -28.439453125 c 0
 862.422851562 -73.51171875 811.087890625 -109.856445312 816.837890625 -179.568359375 c 0
 816.837890625 -186.2421875 804.825195312 -200.102539062 799.383789062 -200.102539062 c 0
 785.318359375 -198.87109375 766.837890625 -195.482421875 758.31640625 -185.728515625 c 0
 649.588867188 -53.59375 530.390625 71.046875 454.3125 227.823242188 c 0
 443.326171875 250.411132812 427.618164062 270.63671875 405.749023438 305.03125 c 1
 368.069335938 253.696289062 333.264648438 211.293945312 304.415039062 165.400390625 c 0
 250 79.0556640625 199.794921875 -9.8564453125 146.303710938 -96.8173828125 c 0
 116.735351562 -144.55859375 69.712890625 -159.958984375 10.2666015625 -159.342773438 c 1
 8.1708984375 -135.125 6.46875 -95.7412109375 6.46875 -71.4326171875 c 0
 6.46875 -64.5244140625 6.6064453125 -53.3125 6.7763671875 -46.40625 c 0
 7.4951171875 -35.318359375 30.4931640625 -14.5791015625 36.8583984375 -16.7353515625 c 0
 140.143554688 -52.15625 176.385742188 27.1044921875 219.19921875 90.1435546875 c 0
 267.76171875 162.012695312 308.829101562 238.193359375 357.700195312 309.342773438 c 0
 391.888671875 358.932617188 343.532226562 386.344726562 329.465820312 416.837890625 c 0
 293.223632812 495.174804688 211.6015625 530.493164062 139.52734375 566.940429688 c 0
 78.439453125 597.741210938 50.513671875 570.328125 52.875 499.486328125 c 0
 52.875 485.83203125 56.365234375 471.046875 52.0537109375 458.932617188 c 0
 46.1337890625 446.764648438 34.4052734375 428.366210938 25.873046875 417.864257812 c 1
 16.7353515625 431.827148438 -1.3349609375 447.022460938 0 460.266601562 c 0
 6.16015625 519.301757812 20.5341796875 577.413085938 26.6943359375 636.344726562 c 0
 30.1845703125 671.149414062 22.07421875 706.981445312 20.5341796875 742.299804688 c 0
 19.91796875 754.517578125 19.3017578125 773.614257812 25.873046875 777.618164062 c 0
 30.44140625 779.537109375 38.1708984375 781.09375 43.1259765625 781.09375 c 0
 49.197265625 781.09375 58.486328125 778.80078125 63.8603515625 775.975585938 c 0
 200.307617188 699.486328125 340.452148438 627.823242188 440.143554688 500.307617188 c 0
 447.84375 490.041015625 481.211914062 485.420898438 487.884765625 492.299804688 c 0
 558.7265625 565.9140625 626.283203125 642.504882812 694.763671875 717.864257812 c 1xa0
EndSplineSet
EndChar

StartChar: Y
Encoding: 89 89 25
Width: 1000
Flags: MW
HStem: -191.947 20.5068<880.556 897.358> 780.245 19.2178<465.536 469.401>
LayerCount: 2
Fore
SplineSet
469.401367188 780.245117188 m 1
 456.171875 771.53515625 433.901367188 758.788085938 419.690429688 751.79296875 c 0
 373.73828125 732.360351562 360.103515625 695.319335938 369.658203125 651.513671875 c 0
 386.192382812 576.358398438 404.552734375 500.55859375 427.313476562 426.69140625 c 0
 459.5234375 322.1171875 476.487304688 317.393554688 561.198242188 388.146484375 c 0
 613.852539062 431.083007812 695.043945312 505.4453125 742.430664062 554.133789062 c 0
 768.842773438 581.94140625 783.659179688 622.41796875 798.583007812 659.244140625 c 0
 815.975585938 701.223632812 791.92578125 732.360351562 762.29296875 760.811523438 c 0
 756.06640625 766.931640625 756.709960938 780.030273438 753.274414062 793.021484375 c 1
 1002.46972656 777.66796875 l 1
 1007.9453125 717.436523438 982.606445312 672.665039062 943.955078125 636.8046875 c 0
 892.52734375 589.02734375 837.771484375 544.470703125 782.907226562 500.55859375 c 0
 699.484375 434.20703125 613.807617188 370.5390625 531.458007812 303.11328125 c 0
 514.03515625 288.848632812 495.805664062 259.459960938 490.766601562 237.513671875 c 0
 476.916015625 153.446289062 467.576171875 68.6279296875 459.953125 -15.9755859375 c 0
 456.41015625 -55.80859375 473.373046875 -80.3955078125 519.540039062 -87.2666015625 c 0
 623.1484375 -103.5859375 725.7890625 -125.91796875 828.538085938 -147.283203125 c 0
 847.973632812 -152.693359375 878.805664062 -163.515625 897.358398438 -171.440429688 c 1
 896.392578125 -191.947265625 l 1
 864.719726562 -191.947265625 831.114257812 -198.819335938 801.588867188 -190.874023438 c 0
 580.630859375 -131.715820312 357.741210938 -143.311523438 134.313476562 -168.649414062 c 0
 112.840820312 -171.119140625 91.3681640625 -182.392578125 69.89453125 -187.868164062 c 0
 48.421875 -193.34375 28.7734375 -196.02734375 7.515625 -200 c 1
 -12.3466796875 -161.563476562 10.4140625 -149.860351562 39.0810546875 -142.989257812 c 0
 111.552734375 -125.703125 185.205078125 -112.067382812 256.388671875 -90.3798828125 c 0
 276.788085938 -84.259765625 304.05859375 -56.345703125 304.809570312 -37.556640625 c 0
 309.426757812 75.7138671875 322.6328125 191.990234375 303.091796875 301.932617188 c 0
 281.404296875 424.221679688 230.19140625 542.323242188 185.7421875 659.458984375 c 0
 176.186523438 684.904296875 141.829101562 701.868164062 117.028320312 720.227539062 c 0
 102.962890625 730.963867188 83.6376953125 733.86328125 69.6796875 744.384765625 c 0
 60.4462890625 751.470703125 56.474609375 765.857421875 50.0322265625 776.594726562 c 1
 62.80859375 779.278320312 76.2294921875 786.04296875 88.25390625 784.002929688 c 0
 139.575195312 775.627929688 189.607421875 755.98046875 239.853515625 757.053710938 c 0
 295.46875 758.235351562 350.655273438 777.560546875 406.055664062 788.7265625 c 0
 425.810546875 792.806640625 445.672851562 796.2421875 465.536132812 799.462890625 c 1
 469.401367188 780.245117188 l 1
EndSplineSet
EndChar
